<svg xmlns="http://www.w3.org/2000/svg" viewBox="0 0 241 241" xml:space="preserve">
  <defs>
    <filter id="bsi-opacity-filter" filterUnits="userSpaceOnUse" x="0" y="0" width="241" height="241">
      <feColorMatrix values="1 0 0 0 0 0 1 0 0 0 0 0 1 0 0 0 0 0 1 0"/>
    </filter>
  </defs>
  <mask maskUnits="userSpaceOnUse" x="0" y="0" width="241" height="241" id="bsi-logo-mask">
    <g>
      <path style="fill:#fff" d="M0 0 h241V241H0z"/>
    </g>
    <g class="crumbles">
      <path d="M87.7 219c-1.2-.7-2.4-1-2-2.6 1.4.2 2.1 1.3 2.8 2.2 3-2 1.1-1.2 5.2-.1.6.2 1.1.2 1.5.9.2.3 1 .3 1.7.5.6 1.4 1.1 2.9 1.8 4.5-1.2 1.2-2 1.9-1.8 2.2.3.6-.1 1.1-.5 1.1-1.3.1-1.7.9-1.8 2 0 .2-.2.3-.3.4l-2.4-1.5c.1-1.6 1.5-.8 2.6-.9-.3-1.1-.6-2.1-.9-3-.3-1.3-1.9-.5-2.3-1.4-6.8 6.4-4.2 4.3-5.8 3.8-.4-.1-.9 0-1.4 0-1.9-3.1 1-2.9.7-5-.3-2-.4-1.5 2.9-3.1zm-3.1 5.1c1.3.8 1.4.8 2.8.4-.9-.1-1.7-.2-2.8-.4zm11.6-1c-.6.6-1.2 1.2-.8 2.3.2-.9.5-1.6.8-2.3zm-7.6.8c.3-.4.4-.2-.9-.9-.1.2-.3.1.9.9zm2-5.1c-.4-.4-.2-.5-1.1.6.3.3 0 .4 1.1-.6zM64 220.4c.5-.6.7-.9 1-1.3-.1-.8-.1-1.7-.4-2.5-1-3.1-3.6-2 4.2-1.9.3 0 .7-.4 1.2-.8-.6-.6-1.2-1.1-2.1-1.9l4 1c-.2.5-.3.9-.5 1.3l2.4.3c-.2-.6-1-1.6.5-1.9 2.6 3.1 2.7 3.4 1.5 5.7-.3-.4-.6-.7-1-1.1-.3.4-.5.7-.8 1.2-1.1-1.1-2.2-2.1-3.8-2.1-.4 2.9-.1 1.9-1.7 3.8 1.2.1 2.4-.4 3 .9-.4 1.1-1 2.1-.1 2.7.2.1.1.7.2 1-.7 0-1.3.4-1.9-.9-1.2-2.1-3-3.2-5.7-3.5zm218-25.7c-.3-.1-.6-.3-.9-.4-.9 1.7-.9 1.7.3 3.4-.3.8-.6 1.7-.9 2.6-.4-.4-.9-.7-1-1.2-.9-2.3-1.7-2.6-3.7-1.6.9-6.1 6.7-3.9 2.8-4.8l.6-1.5c1.1.3 2 .6 3 .9.4-2.1 1.1-2.6 3.5-2.5.6 2.2 1.8 4.3.4 6.7-.3.5-.4 1.1-1.3.8.4-.7-.2-1.7.9-2.2.1-.1.2-.8 0-1-.2-.2-.8-.3-1-.1-.4.3-.6.7-1.8 2.7-1.2-.5-1.1-1.2-.9-1.8.3-.2.7-.3 1.2-.5-.4-.5-.7-.8-1.1-1.4-.1.8-.1 1.3-.1 1.9zm-103.3-22.4c1.9-2.5 5-3.1 7.6-4.7.5.4 1 .7 1.7 1.3.2-1.1.4-2 .6-3 1.2.2 2.1.8 2.5 1.9-.6.1-1.1.2-2.2.3.8.5 1.2.7 1.5.9-.9 1.4-2.2.4-3.6.8 2.3 1.5 3.4 1.8 0 3.6-.7-.3-1.4-.7-2.2-1-.4 1.1-.8 2.1-1.1 3-1-.2-1.9-.2-2.4-.7-.4-.4-.4-1.3-.5-2.1-2.2-.4-2-.3-1.9-.3z"/>
      <path d="M74.8 220.7c-.1-.3-.3-.7-.5-1.1 1.7-.2 1.8.1 1.3 2.6 3.2.5 2.2-.1 4.4 2.7.7-1.4 1.7-1.6 2.9-1.3-.1.6-.1 1.2-.2 1.7-2.2 1.2-4.2 2.4-6.3 3.6-.4-.3-1-.7-1.6-1 .2-1.8 2.3.2 2.6-1.4-1.3.8-1.5-.2-1.8-1-.8-.1-1.5-.3-2.6-.5.5-.6.8-.9 1.1-1.2-.8-.5-1.5-1-2.6-1.7 1.4-.6 2.3-1 3.3-1.4zM6 169.4c0 2.9 1.6 1.4 1.5 4.9-.1 2.2.7 1.1 1.2 2.3.4.9.7 1.8 1.1 3-1-.1-2-.3-3.2-.4.3-.7.5-1.3.8-1.9-1.5.3-.9.7-2.8-2-.4.3-.7.5-1.2.9-.7-2-1.4-3.9-2.2-6.3 2.5.1 2.4 1.6 4.8-.5zM21.4 233c-.9 3.2-.9 2.7-.4 2.9l.7-.7c.7.2 0 1.6 1.2 1.5.5 0 1.1.6 1.7 1.1-.9 1-1.1 1.9-.1 2.8.3.3.2.9.4 1.6-2.7-.3-3.5-2.6-5.4-3.8 2.2-1.5-.4-.4-2-10 1.7 1.4 3.2 2.8 3.9 4.6zM13 11.4c-.7.9-.8 2-1.9 2.2-.2 0-.3.6-.3.9.2 2.1 1.3.5-3.4 5.5-.4-.1-.9-.3-1.4-.5-.1-1.4-1.8-2.6-.5-4.2.7.4.7.4.8 1.2 1.4-.4 2.4-1.1 2.5-2.8.1-1.1 1.3-1.9 1.1-3.2-.1-.4.8-1 1.5-.5.6.4 1 .9 1.6 1.4zm141.4 74.9c-.1-.6-.2-1.1-.4-2-.7.7-1 .9-1.2 1.2-.1-.1-.3-.2-.3-.3-.1-.9.1-1.7 1.2-1.8 1.3-.2.4-1.6 1.6-1.5 3.1.3 3.5 2.2 4.3 3.8.4.7.1 1.4-.7 1.6-1.4.4-2.6 1.6-4.2.9-.4-.2-.9.2-1.4.3-.8-1.2.5-1.5 1.1-2.2zm.4-2.1c.5.5 1 .8 2.2.5-2.3-1.1-1.9-1.1-2.2-.5zm95.2-8c-.1-.7-.2-1.2-.4-2.2-.9 1.3-1.8 2-3.3 1.3 0-.8.1-1.6.2-2.7 1.4.5 2 .7 2.1.5.4-.7 1-.9 1.8-1 .6-.1 1.2-1.3 1.7-1.2 1.7.3 1.8-.2 2.3-.2 2.2 1.5-.8 2.4.4 3.9 0-.1.4-.2-4.8 1.6zm2.1-4c-.6.5-.5.3-.2.9.7-.5.6-.3.2-.9zM102.2 242.6c-1.3 2.2-1.2 1.2-.3 4.3.6 0 1.3.1 2.2.1-.6 1.8-2.1 1.5-3.3 2.4v-2.2c-.9-.1-1.8-.1-2.8-.2.2-1.3.8-2.2.5-3.4-.1-.5.6-1.3.9-1.7-.4-1.2-.8-2.3-1.2-3.5.5-.2.8-.4 1.2-.6.7.9.6 2.1 1.3 3.8.3.5 1 .7 1.5 1zm86.3-183.3c1-.1 1.9-.3 2.8-.4.2-.6.3-1.1.5-1.8l1.4 1.4c1.1-.3 2.2-.6 3.4-1 .3.8.4 1.4-.5 1.9-3.9 1.8-3.1 1.6-4.8 4.3-.4-.6-.7-1.1-1.1-1.7-1.9 2.3-1.7 2.6-1.7-2.7zM168 204.8c.4-.3.9-.6 1.4-1 2 1.1 2.4 2.7 1.1 4.4-.3-.3-.6-.6-1-.8-1.5-.7-3.2-.7-4.2-2.4-.3-.6-1.7-.6-2.5-.9.1-.7.3-1.5.5-2.4.7-.2 1.6-.5 2.7-.8.6 3.9.2 3 2 3.9zm100.8-8.7c-1.8.6-2.3-1.1-3.5-1.3-.1-.9-.3-1.7-.4-2.5-2-.4-2-.4-1.6-3.6.8-.1 2.2.6 4.7 2.6.3 1.6.6 3.2.8 4.8zm-7.4-69.7c-.6.1-1.3 0-1.8.3-1.3.7-2.6.8-4 .5-.5-.1-1.1.1-1.6 0-.3 0-.6-.2-1-.4 1.5-1.9 5.2-3.1 6.7-1.7.9.8 3.8.1 3.9 2.1.1 1.4-.6 2.3-2.1 2.7 0-1-.1-2-.1-3.5zM36.7.3c1.2-4.2.8-2.9 2.1-4.9 1.9.9 0 2.6 1 3.9.7-.2 1.4-.5 2.3-.8V-3c.6.2 1.2.3 1.6.4-.1 1.2-.2 2.3-.3 3.6-2.3-.9-4.5 1.2-6.7-.7zM162 197.1c-2.5-.5-2.2-.3-2.3-.8 1.9-.7 2.7-2.3 3.7-4.3.5 1.5-.1 3.2 1.8 3.7.2-.5.2-1.1.6-1.3.3-.3.9-.2 1.2-.2.6-.8 1.1-1.5 1.6-2.2 1.5.6.9 2.1.7 2.3-.8.6-1.2 1.9-2.5 2-1.6.1-1 1.9-3.3.6.1-.4.1-.8.2-1.2-.4-.3-.1-.5-1.7 1.4zM36.7 252.4c-3.2-1.5-1.3-5.7 2.6-3.9.9.4 1.5 1.8 1.1 2.6-.5 1.1-2.4 1.8-3.7 1.3zm-21.2-59.7c-.5-1.2-.8-2.2-1.2-3.3.4-.2.9-.5 1.4-.7.4.8.8 1.6 1.9.8-.2-1-.5-2-.7-3 4.1.1 4.3 3.7 1.5 5-1.6.6-.4.1-2.9 1.2zM22.9 5.4c-2.3 1.2-2.1-.4-2.1-2.8.6-1.4 1.6 0 2.3-.4.7-.4 1.5-.6 2.2-.9 1.4 2.2.2 3.7-1.1 5.5-.4-.5-.8-.9-1.3-1.4zM55.3 209c-.2-1.1-.3-2-.4-2.6 2.4-5 2.1-5 2.8-1.8.5-.9 1.1-1.7 1.6-2.6.6.8.6.8-.8 5.3.1 0 .2-.1-3.2 1.7zM-3.9 41.7c-2.5.4-3.1.8-3-1.1 0-.2-.5-1.4-.3-3.1 0-.3.5-.8.8-.8 3.6.2 3.2.8 4.2 1.9-2.1.3-1.6 1.8-1.7 3.1zm261.4 23.4c-.9 1.4-.9 1.4-2.8.4-.1.5-.1.9-.2 1.4 2 .1 1.7-.1 1.9.4-3.1 2.1-2.1 1.6-4 1.6-.4-.8-.8-1.5-1.1-2.1 2.2-2.8 2.2-2.8 6.2-1.7zm3.5 6.1c-.5-1.7-.5-1.7.2-2.7-.5-.7-.9-1.4-1.6-2.3 2.7.6 3.5 2.7 5 4 .8.8-.1 1.7-.7 2.5-.4-1-.8-1.9-1.2-2.9-1.4.8-1.1 1.8-.8 2.7-.8.6-1.5 1.3-2.2 1.9-.9-1.3-.9-1.3 1.3-3.2zm-32.1 66.4c.2-1.3.5-.6-2.2-2-1.2-.6 3.3-2 7.2-.5-1.3 5.4-.5 3.5-1.7 2.4-.7-.6-1.4-1.1-2.4-.3-.3.3-.9.3-.9.4zM-.3 3.4c.8.4 1.8 1.1 2.2 2.1.7-.8 1.2-1.3 1.8-2-.6-.3-1.1-.6-1.5-.8l-2.5.7zm247.7 161.2c1.4 1.7.2 3.2.3 3.4.6 1.8-.9 2.5-1.9 3.6-.7-.8-1.2-1.4-1.8-2.1.7-.4 1.7-.7 2.1-1.4.4-.6.3-1.6.5-2.3-.7-.4-1.2-.8-1.9-1.2.5-.7.9-1.2 1.2-1.7 0 0-.4-.3 1.4 1.2.1.2.1.4.1.5zM60.7 212.5c.4-.2 1-.2 1.1-.5 1-2.1 1-2.2 2.9-1.5.6-.7 1.1-1.4 1.7-2.3.5.4.8.6 1 .8-.3 1-1.1 1.4-1.8 2.5-.8 1.3-2 2-3.4 2.5-.4.2-1.2-.1-1.6-.4-.1-.1.3-1.2.1-1.1zm93.7-4.2-.9-1.8c.5-.1 1-.1 1.6-.2.1-.3.1-.8.4-1 .3-.2 1.1-.3 1.1-.1.4.6.7 1.3.8 2.1.3 2.1.3 2.1-.3 3.1-.2-.5-.3-.9-.5-1.5-.3.5-.6.8-.8 1.2-.7-.9-.6-.9-.9-.3-.2.4-.4.9-.7 1-.2.1-1.6-.3-.8-1.8.1-.3.6-.4 1-.7zm-101.6-8.8c.8 1.7 2.7 2.7 2.1 4.9-3-.6-3.7-1-4.8-.2-.8.6-2 .5-3.1-.2 2.9-.2 4.1-2.6 5.8-4.5zm-1.1 1.8c.8 1.1.5.9 1.3.6-.5-1.1-.2-.9-1.3-.6zm80.7-20.4c3.9 1.3-.6-.4-2.8 3.9-1-.7-2.1-1.5-3.3-2.3-.3.8-.5 1.3-.7 1.8h-.5c-1.3-2.6.9-2.1 3.8-2.1.7-.9 1.3-1.6 2.1-2.6.5.4 1 .9 1.4 1.3-.5.1-.9.1-1.7.2 1 .7 1.3.2 1.7-.2zM241.3 15.1c2.1 1 1.8 1 1.5.3 1.1-.2 2.1-.4 3.2-.6-.1 1.9 1.1.1 1.6.6.3 1.7-1.1 2.8-3.1 2.3-1 1.2-.6.7-1.6 1.9-.3-1.7-1.9-2.5-1.6-4.5zM13.5 215.4c0 2.1-.4 1.5 1.9 3-3.6 6-2.7 5.7-5.1 3.7 1.1-.8 2.1-1.4 2.8-1.9.3-2.2-2.6-.8-2.4-2.4 1-.9 1.8-1.6 2.8-2.4zM268.7 78.2c.4-.1.7-.2 1.2-.4.1 1.5-1.2 3 .5 4-.4.8-.8 1.5-1.1 2-.7 0-1.9.1-1.9 0-.2-1.4-2.4-1.5-2-3.4.5.3 1 .6 1.7 1 .2.2 2.1-3.5 1.6-3.2zm.7-68.3c-2.3-.5-3.1 1-3.6 1.4-1.4.9-1.4 1 .3 2.3 1.4-2.4.9-1.9 1.8-2-.2.7-.3 1.3-.4 1.8.9.5 1.4 1.8 2.7 1-.4-1.9-.5-2.5-.3-3.1l-.5-1.4zm-6.6 144.3c-3-1.2.6-2.4-1.2-4.1-3.2 3.5-2.3 2.9-4.2 2.7-.2-1.2.7-.7 1.2-.8.1-.5.1-.9.2-1.3 1-.4 2-1.2 3-1.1.8.1 1.8 1.1 2.1 1.9.5 1.4 2.9-.7-1.1 2.7zm-66.6-14.7c1.1-.2 2.2-.7 2.7-.4.8.5 1 1.7.6 2.7-2.1.2-3.8-.8-5.8-1.5.1-.7.1-1.5.4-2 .9-1.5 1.5.1 2.1 1.2zM260 13.8c0-3.6.2-3.9-1.9-3.6-.3 0-.6-.3-1.1-.5 1.7-1 2.9-3 5.2-.9-.7 1.6-.9 3.4-1.6 5.2-.2 0-.4-.1-.6-.2zm-57.1 78.4c4.7-3-1.1-.2-1.1-2.2 0-1.2 2-1.8 2.5-2.1-.1 1.4-.2 1.3 1.6 2.1 1.4.6 1.4 2.5-.8 2.8-.5 0-1.1-.3-2.2-.6zm69.5 95.6c-2.2-1.2-2.7 2.9-4.3 1.2-1.3-1.4 1.6-3.7 5.9-3.6.4 1.4-1.3 1.5-1.6 2.4zm-38.6-54c.1-1.5 1-2.9.8-4.6 3.2 1.3 2.1 2.3 1.3 3.7 1.7 1.2 1.4.6 1 2.7-1-.6-2-1.1-3.1-1.8z"/>
      <path d="M267.2 78.9c-.3-.3-.8-.7-1.6-1.5-.3-1 .5-2.9-1.6-3.8.8-1 1.6-.6 2.2-.5.4.6.7 1.1 1 1.6.3.6.3 1.3.6 1.8s1.3.6.8 1.6c.1.1.4 0-1.4.8zm-128 137.7c-2.4-.8-2.4-1.1-3.7-.7-1.5.5-1.8.2-1.4-1.7 5.1-.4 6.6-1 5.1 2.4zm.3-45.3c1-.8 1.7-.8 2.4-.1-.9.8-1.7 1.7-2.8 2.6-1.3-3.2-.7-2.7-2.3-2.8 0-.6-.2-1.1-.1-1.6.1-.4.4-1 .6-1 1.3-.2 1.6 1.5 2.2 2.9zm-148.1-4.5c1.1.2 1.1.2 1.7 1.6 1.6-.6.7-.9 3.8 1.4-.3.1-.7.5-.9.4-1.7-.8-3-.2-4.1 1.3-1-2.8-.9-1.7-.5-4.7zM43.7 2.3c-.7 5 5.8 4.6 2 8.4.4-3.3-4.5-3.6-2-8.4zm242.8 202.3c.1-1.9 0-1.6.5-1.8 1.1 2 .5 1.6 2.7 2.1h.1c-.4-2.1-2-2.8-3.4-4-1.7 3.2-.6 1.9-1.7 1.4-1.4-.5-1.1 2 1.8 2.3zm-36.9-58.5c.3-.8.4-1.5.7-2 1.6-2.4 3.7.2 2.5 1.9-.5.9-1.3.9-3.2.1zM95.9 183.7c-.6-.5-1.3-.8-1.6-1.4-.5-.9-1.2-1.2-2.1-1 0-1.6 1.2-1.9 2.1-2.4 1.7 1.2 2.1 2.8 2.1 4.6-.2 0-.3.1-.5.2zm137.7-177c1.4.4 2 1.9 3.5.6-.2.9-.2 1.3-.3 1.5-1 1.1-2 2.1-3.3 3 .3-1.1.3-2.1 0-3.1-.2-.6.1-1.3.1-2zm-182 192.4c-.8-.1-1.4-.2-2-.3-.9 1-.2 1-3.1-.3.1-.2.1-.5.1-.5 3.1.4 4.8-3.9 5.8-2.2.1.2-.5.9-.7 1.3-.5.1-.4-.2-.1 2zM126.3 84c.7 1.3.7 2.1-.4 2.1-2.2.2-1 3.2-2.3.2-1.1.5-2.2.9-3.4 1.4-.5-2 1.5-1.5 3.3-2.3 1-.3 1.9-.9 2.8-1.4zm153.9 100.8s-.4.5-.7.9c-.4-.8-.9-1.5-1.4-2.6 1.9-.4 3.7-.7 5.5-1 .8 1-.5 1.1-.8 1.7-1.6.6-1.6 1.5-2.6 1zm-120.3 16.5c-.2-.9-1.9-1.2-1.4-2.4 1-.3 2-.6 3.1-1 .3 1.3-.6 2.9.8 4.2-2.4-.2-1.5-.3-3.4.5-.1-.3-.2 0 .9-1.3zm-4-1.1c-.5-1-.5-1-1.8-1 .3-1.1-.5-2.3.6-3.6.4 2.6.4 2.6 1.8 2.6-.4-.6-.7-1-1-1.5 1.1-.2 2.1-.4 3.4-.6-2.2 4.6-3.2 3.7-3 4.1zm-126-30.7c.3 1.1.5 2.2.8 3.4.4-.3.6-.5 1-.8.2.8.3 1.4.5 2.3-2.3-.1-1.6.3-3-2.4-1.9.6-1.8 1-.7-2.7 1.6.3 1.4.3 1.4.2zm161.5-20.4c-.8-.5-1.5-.9-2.4-1.5.7-.3 1.2-.6 1.9-.9-.2-.5-.3-1-.6-1.8 1.5.8 3.2-.1 4.5 1.4-.3.1-.6.3-.7.3-.9-.2-1.4 0-1.6 1-.2.6-.7 1-1.1 1.5zM141 72.7c-1.3 1.4-2.1 2.7-3 2.2-.6-.3-.3-2.5-.3-3.6 1.1-.4 2-.1 3.3 1.4zM17.8 20.1l3.7 3.7c-.6.1-1 .2-1.4.2-4.4-.2-3.6-.6-2.3-3.9zM205 140.6c2.1 1.9 3 1.7-.1 4-1.5-1.3-1.5-1.3-.4-2.9 0-.1.6-1.1.5-1.1zM288.8 89c-1-.3-1.6-.5-2.2-.7-1.7-2.6 2.4-3.8 2.5-2-.1.9-.2 1.7-.3 2.7zm-37.6-74.7c-.6-.1-1.2-.3-1.9-.5.2-.5.4-.9.6-1.5.6.7 1 1.6 2 .7.7-.6 1.6-.8 2.4-1.2-.1 1.3-.3 2.5-2 2.9-.4.1-.7.7-1.1 1.1-.5-.3-.5.1 0-1.5zM-5 52.6c.5.2 1.1.3 1.8.5-.4 1.5-1.8.7-2.5 1.3-4.3-7.3-2.1-3.1-.1-3.6 1.4-.4.6 1.1.8 1.8zm174.2 24.2c.8-.5 1.6-1 2.6-1.6-2.3 7.1-1.6 5.6-3.1 6.1-.2-3.5 1.9-1.7.5-4.5zm-16.5 132c-1.3-.4-1.3-.4-2.2-2.1-.6 1.2-.3.7-1.3 1.7.3-1.8-1.2-3.2.4-4.9.3 1.1.9 1.8 1.7 2.5.7.6.9 1.8 1.4 2.8zm145.6-35.1c-1 0-1.3 1.8-2.5.8.6-.8 1.1-1.5 1.7-2.2 1.4-1.7 5 1 .6 2.7.1-.5.1-.9.2-1.3zM280.4 71.1c-2.5 0-3.8-1-4.5-3.2.4-.1 1.1-.2 1.1-.2.4 1.7 1.9 1.4 3.3 1.6.1.5.1 1 .1 1.8zM108.5 169c-.9-.9-1.6-1.5-2.3-2.2.5-.7.9-1.4 1.4-2.1.7.6 1.2 1 1.8 1.4-.2.9-.5 1.8-.9 2.9zm52.1-107.3c4 .4 2.8.9 5.6-1.6.2.1.3.2.5.3-.4 1.6.3.7-2.4 3.4-.7-1.2-2.5-.6-3.7-2.1zM82.7 237.9c2-3.2 1-2.4 3.2-1.6.8.3 1 .7.4 1.3-1 .8-2 1.4-3.4.9 0-.2-.1-.4-.2-.6zm-84.4-152c-.4-.8-.7-1.3.3-2.1.7-.5.9-1.6 1.6-2.8.5.9.8 1.5 1 1.8C-.6 86 0 85.1-.9 86.2c-.3-.1-.6-.2-.8-.3zm202.6-6.1 1.6 3.2c-1.8-1.2-3.3.3-4.8.5-.1-.6-.5 0 3.2-3.7zm54.3 93.4c-2.4-.9-3.2-.1-4-3.3-.2-.6.1-1.2.8-1.2.4 0 1.2.7 1.2.8-.5 1.6.9 1.9 1.7 2.7 0 .3.1.5.3 1zM82.4 255.6c-.7 2.5-1.5 2-5.1.4-.1-.1-.1-.5-.1-.7 1.8-1.2 3.2.8 5.2.3zm67.9-55.8c.4.5.8 1.1 1.2 1.7-.6.6-2.1-.2-1.7 1.9-1.2-1.4-3.1-.3-3.5-2.5 2.2 1 3.3-.9 4-1.1zM-14.5 61.2c.3.7.6 1.4.9 2.2-1.3-.4-2.4 1-3.8.1 1.2-2.6.5-2.1 2.9-2.3zM164.3 166c.7-.6 1.3-1 1.8-1.4 1.6 1.7 1.6 2.3.5 4.2-.8-.9-1.5-1.8-2.3-2.8zm33.6-71.3c-.1 2-.3 3.7-.4 5.7-1.4-.4-1.4-1.9-1.9-3.1.7-.8 1.4-1.6 2.3-2.6zM24.5-4.2c-1.8 1-1.3.9-2.8.9l-.5.2c-.2 0-.4.1-.5.2 2.2.1.9 1.6 1.6 2.3 1.8-.4 2.4-1.2 2.3-3.6h-.1zm207.8 153.5c-.8.4-1.5.7-2.3 1-.7-1-1.4-1.9-2.2-3 .5-.1 1.1-.3 1.2-.2.8 1.1 2.4.7 3.3 2.2zM61.2 59.4c-.5 0-1 .1-1.4.1-1-1.1 0-2 .3-2.9.1-.5.9-.9 1.4-1.3.5.4.4-.3-.3 4.1zm189.3 67.5c.8.2 1.5.3 2.4.5-.5 1.1-1 2-1.4 3-1.4-.8-1.6-1.8-1-3.5zM10.4 168.5c-1-1.5-.9-1.5 1-1.8 1 2.3 2 1.3-3.6 4.5-.6-.8 0-.9 2.6-2.7zm119.7 3c.3-1.4.9-2 2.1-2.2 2.5-.5 2.6-.5 4.2 1.3-3.5-.8-2.1-1-6.3.9zm28.6 23.3c-.8-.3-1.7-.6-2.9-1 2.2-1.8 2.4-2.2 3.1-1.6.8.7.9 1.9-.2 2.6zM122.3 205c2.1.1 3.1 1.5 4.5 2-.3 1.1-.3 1.1-1.4 1.4-.9-1-1.9-2-3.1-3.4zM273.9 65.9c-.4-.9-.8-1.7-1.3-2.8 1.1.1 2.1.1 3 .4.5.1.5 1.2-.1 1.5-.5.3-1 .5-1.6.9zM157.5 80.5c-1.1.1-2 .1-3 .2.5-2.6.5-2.6 1.5-3.2.5.9.9 1.7 1.5 3zm112.1-30.4c.1-2.5 1.8-3.1 2.8-2.2.2.2.4.8.3 1-.4.5-1.5.7-3.1 1.2zm-119.8 132c.2-.9.3-1.8.5-2.7 1.4-.5 1 1.2 1.8 1.5-1.7 1.2-.8.4-.3 1.4.1.2.1.6.2.9-.9 0-.3.3-2.2-1.1zM250.2 9c1.1-1.5 1.1-1.5 3.4-.7-.5.8-1.1 1.6-1.7 2.5-.6-.7-1.1-1.3-1.7-1.8zM53 155.6c-.9-1.1-1.8-1.9-1.2-2.9.4-.6 1.4-.9 2.1-1.3.8 1.6-.5 2.6-.9 4.2zm-11.5-11.2c1-.8.7-.7 1.1-.4-.3.5-.5 1-.8 1.6-1-.3-2.1-.9-2.6.7-.9-1-.4-1.7.1-2.3.7-.6 1.4-.4 2.2.4zM-26.1 58c.6.5.9.8 1.4 1.2.5-1 .9-1.8 1.3-2.7 1.2-.2 1.3.6 1.2 1.2l-2 2c-1.6-.2-1.6-.2-1.9-1.7zm185.5 146.6c1-2.1.5-1.4 2-2.1-.1 1.7 1.1 3.4-1.5 4.2.1-.7.1-1.2.2-1.8-.8-.4-.7-.4-.7-.3zM14.6 34.2c.2.6.5 1.3.8 2.2-.7.4-1.7-.8-3-1.3 3.8-1.8 3.2-1.6 2.2-.9zM-17.3 68c-1.8-3-2.1-3-1-4.2 1.1 1.6 3.5 4.1 1 4.2zm214.8-50.9c.2-.7-1.5-1.5.2-2.2.8 1 1.4 2 .6 3.3-.4.7-.8 1.5-1.8 1.1-.5-1.1.8-1.3 1-2.2zM177.8 76c-.3-3.6-.6-4.2 1-4.5 0 1.9.5 5.7-1 4.5zm-15.6 130.4c.5 1.5 2.6 1.8 2.4 3.7-2.8-1-1.8-.5-3.1-2.2-.6-.8-.2-1.1.7-1.5zM96.1 251c-1.7-1.3.1-2.6-.7-3.8.5-.3-.1-.6 3.2 2.3-2.6.3-2.1-.1-2.5 1.5zM243.4-2.6c-.2.3-.5.8-.8 1.2-.1.1-.6.2-.7 0-2.1-2.6-1.5-2.3-1.3-3.3.8.7 1.7 1.3 2.8 2.1zm-184-5.3c1-.1 1.8.2 1.9 1.4-.3.5-1.5.2-1.5 1.2 0 0-.7.2-.9 0-1.2-1.2 1-2.8.5-2.6zM25.3 237.8c2.5 1 2.6 2 .6 4.1-.2-1.3-.4-2.6-.6-4.1zm279.6-63.5c.2-.6.5-1.3 1-2.6.3 2 1.8 1.4 2.7 2.2-2.2 1.5-1.4 1.3-3.7.4zM246.5 83c1.2-1.8 1.5-1.7 3.3.6-1.4.9-2.2-.1-3.3-.6zM307 187c.4 2.3-1.5 1.9-1.8 3.5-3.9-7-.7-.3 1.8-3.5zM259.3 79c-1.4-1.4-1.2-1.8 1.5-3.3 1.3.7.7 1-1.5 3.3zM82.6 234.6c-.3-.3-.5-.5-.7-.8l-1.3 1.3c.1-1.1.2-1.8.4-2.7 1.1.1 2.1.1 3.5.2-.8.8-1.3 1.3-1.9 2zm143.1-123.9c-1-1.1-1.7-1.9-2.7-3 .8-.2 1.3-.5 1.6-.4 1.2.6 1.3 1.7 1.1 3.4zm-119.4 58.2c.7 1.9.7 1.9-1.4 3.1-1.5-1.3-1.2-1.3 1.4-3.1zm164-22.5c-.3 1-.5 2-.8 3.1-.8-.3-1.7-.7-2.8-1.1 1.4-.7 2.5-1.4 3.6-2zM31.4 175.7c.3 2.3 2.6 2.8 3.8 4.2-.8.3-1.9-.1-2.8-1.1-.7-.8-2-1.5-1-3.1zM88.1 240c.3-1.2-1.4-2.4.1-3.7.5.2 1.1.4 1.8.6-.7 1.2-1.3 2.2-1.9 3.1zM4.2 216.7c-1.1 1.2-2.2 1.9-3.7 1.9l.4 1.3c.8-.2 2-.9 2.9-1.4.7-.3 1-.8.4-1.8zm-5.9-48.3c2.6 2.6 2.6 2.6 1 3.5-.1-.2-.2 0 .1-.8-.6-.3-1.3-.6-1.5-1-.3-.4.1-1.1.4-1.7zm38.5 4.2c2.3.4 1.9.2 2.3 2.1-.6.2-1.3.4-1.9.6-.1-1-.3-1.8-.4-2.7zM30.1-3.7c1.5.7 1.9 1.3 1.4 2.1-.3.6-1 .6-1.5.2-1.1-.8-.4-1.5.1-2.3z"/>
      <path d="M-1 86.3c.3 1.1-.3 1.6-1.4 2l-1.5-1.5c2.6-1 2.1-1 2.9-.5zm240.2 55.8c-.7-1-2-1.3-1.8-2.7 2.9.7 3.2 1.1 1.8 2.7zm-131.4-11c.9-.1 1.6-.3 2.4-.4.1.6.3 1.2.4 1.8-1.9.3-1.9.3-2.8-1.4zM41.2 73.8c-2.1.3-2.1.3-3.1-1.2 1.4-.8 2.4-.5 3.1 1.2zm143.7-6.6c.8.4 1.5.7 2.4 1.1.6 3-3.2.5-2.4-1.1zm107.2 68.4c-1.4-.4-1.9-1.1-1.4-2.3h2.9c.4 1.5-2.1.6-1.5 2.3zM178.4 16.7c1.6-2 1.7-2.1 3.8-2.8.3.3.3-.1.4 1.4-1.4-.1-.9 0-2-.1-1 1.7-.5 1.3-2.2 1.5zm6.1 43.1c-.6.9-1.1 1.7-2.2 1.2-.7-.3-.6-1.1.2-2.4.7.3 1.3.7 2 1.2zM40.3 8.7c-.5 3.4-.2 2.7-1.6 2.9-.1-.8-.3-1.5-.4-2.3.6-.2 1.1-.3 2-.6zm195.8-5.3c-.8.9-2.1.9-3 .2-.5-.4-.5-.4.2-1.5 1 .4 1.9.9 2.8 1.3zm-12.8 139c3 2.9 2.2 1.8 2.3 3.9-3.4-3.3-2.8-2.4-2.3-3.9zm24.1 22.2c-.2-.8-.2-1.5-1.5-1.6.1 0 0 .1 0-.9 1.1.1 2.1.1 3.5.2-.9.9-.9 2-2 2.3zM59.5-7.9c-2.2-3-2.1-2.3-1.3-3.5.8.7 1.5 1.3 2.3 2-1.2 1.6-1.1 1.5-1 1.5zm118.9 153.1c.8-.6 1.4-1 2-1.5 1.3 1.2 1.3 1.4-.3 2.6-.4-.3-.9-.6-1.7-1.1zm-63.2-19.9c-.1 1.5-1.1 1.5-2.1 1.6-.1-.8-.2-1.6-.3-2.6.9.3 1.6.6 2.4 1zm-18 84.5c-.6-1-2.7.2-2.5-1.9 2.7-.4 3.3 0 2.5 1.9zm89.4-150.3c-.1-1.9-.6-3.5 1.4-3.2.3 3.4-1.6 2.8-1.4 3.2zm72.1-44.3c-1.2-.5-2.1-.8-3-1.2.3-2.1 1.9-.3 2.9-1.1.1.8.1 1.5.1 2.3zm30.7 174c.8.1 1.5.2 2.1.2.8 1.9.8 1.9-.4 2.5-.6-.8-1.1-1.6-1.7-2.7zm-139.3-5.9c.5.8.9 1.7 2.1 1.4-.3 1.1-.3 1.1-1.3 1.5-.6-.8-1.3-1.6-.8-2.9zm19.1-115.4c.7-.5 1.2-.8 1.6-1.1 1 1.3 1 1.3-.2 2.7-.4-.4-.8-.9-1.4-1.6zm-9.7 119.4c1.7-.5 2 1.4 3.6 1.7-.5.6-.8.9-1.1 1.3-.9-1.1-1.7-2-2.5-3zm-67.9 56.4c-.5 0-1.2.1-2.3.2 2.8-3.7 2.8-4.3 2.3-.2zM-21.9 125.2c.5 0 .7 0 .8.1.5.5 1.7.6 1.2 1.5-.2.4-1.2.4-2 .6v-2.2zm214.7-46.1c1.4-.4 2.3-.5 3.2.4-.4.5-.7.9-1.2 1.6-.6-.7-1.2-1.2-2-2zm-44.3 118.5c0-.4-.1-.8-.2-1.5 1 .7 1.6 1.1 2.4 1.7-.5 2.4-.4 1.9-.6 2.1-.6-.2-1.5-.2-.9-1.3.1-.2-.8-1-.7-1zm5.8-19.8c-.1-.6-.1-1.3-.2-2 1-1 2.7.1 1.9 1.9 0 0 .2 0-1.7.1zM255.2 80c.1-1.2-.2-2.2 1-2.7.9 1.8.8 2.1-1 2.7zm-73 100.6c.7 1.2.5 1.7-1.1 2.6-1.4-1.3-1.1-1.1 1.1-2.6zm75.7-107.3s-.1.7-.2 1.1c-.6.1-.8-1.5-2.9.1 0 .1-.1.3 1.5-3.4.9-.2.3 1.8 1.6 2.2zm-17.1 60.9c.6 1.9-.3 2.7-1.4 3.4.1-1.2-.1-2.5 1.4-3.4zm-123.1 47c-.4-.7-.6-1.1-.7-1.4.9-1.1 1.7-2 2.6-3 .9 1.1-.6 1.3-.8 2.1-.3.7-.7 1.4-1.1 2.3zm93.2-64.7c-.7.4-1.3.8-2 1.2-.2-.7-.3-1.3-.5-2.1 1.1-.6 1.7.2 2.5.9zm49.4-36.2c.1-.6.2-1.2.2-1.9.8.1 1.5.2 2.4.4-2.5 2.5-1.9 2.3-2.6 1.5zm-139.7 96.4c.9 1.3 1.6 2.3 2.4 3.6-2-.6-2.8-1.8-2.4-3.6zm42.2-5.8c-.8.5-.8.5-3-.8.5-.3 1.3-1.5 3 .8zm-20.3-84.5c.1-.4.3-.8.4-1.3.9.2 1.8.3 2.6.4-.5 1-1 1.1-3 .9zm-38.6 167.5c-.7 0-1.1 0-1.6.1.4-1.1-.9-2.2.3-3.4.4 1.1.8 2 1.3 3.3zm180.7-54.2c1.2-1.3 1.2-1.3 2.7-.5-1 1.2-1.1 1.2-2.7.5zm-73-80.8c.3.7.4 1.2.5 1.6-.8.6-2 .3-3-.5.7-.3 1.3-.6 2.5-1.1zM102 220.3c-.2.5-.5 1-.8 1.6-.7-.2-1.3-.4-2.1-.7.6-1.6 2.2-.2 2.9-.9zM-.8 164.5c-.7 1.4-2.7.4-3.2 2.3 0-2.1 1.2-2.8 3.2-2.3zm141.4-61.2c0-1.1.1-2 .1-3.1 2 1.7 2 2.2-.1 3.1zm145.2 36.3c.7.5 1.1.7 1.6 1.1-1.7 1.4-1.1 1.1-2.2.9.1-.6.3-1.1.6-2zm-108.3 34.1c-.4-.5-.8-1-1.5-1.7 1.1 0 2-.8 2.7.4-.2 0 .6 1.1-1.2 1.3zm-8.6-34c.7.9.8 1.6.3 2.3-.2.3-.7.3-1 .5-.5-1.3-.8-.5.7-2.8zM51.9-2.7c1.2-1.4 2 0 3-.1.3 0 .6.6.9 1-.5.4.1.5-3.9-.9zm110.2 187.2c-.7-1-1.3-1.9-1.9-2.9 2.2 0 2.4.3 1.9 2.9zm-136.4 44c.6-2.5 2.7-.6 2.3.1-.7 1.3-1.4.1-2.3-.1zM94.6 18.4c-.9.1-1.5.3-1.9.1-1.1-.7-.8-2.5.9-1.5.4.3.6.7 1 1.4zm-8.4 217.3c0-.8.1-1.7.1-2.6.6-.3 1-.1 1.1.6.3 1.2 0 1.6-1.2 2zM267.3 85.9c-2.7-.2-2.1.2-2.5-1.4 1.3-.6 2.1-.2 2.5 1.4zM179 89.5c.9 1 .4 2.2 1.6 2.5.4.1.3 1.1-.4 1.6-.5-1.2-1.8-2.1-1.2-4.1zM67.7-4.3c.3.7.6 1.3 1 2.1-.7.3-1.3.6-1.6-.2-.3-.7-.7-1.5.6-1.9zM138.1 114c-1.1-.5-2.1-.9-1.6-2.2 1.6.5 1.6.5 1.6 2.2zm44.2 72.3c.2-1.6-.6-2.8 1-3.8.4 1.3.3 2.4-1 3.8zm-30 2.4c1.4 1.3 1.4 1.5-.2 2.7-.8-.9-.4-1.7.2-2.7zM69.4 2.4c.7-1 1.1-1.7 1.6-2.4 2 .1.4 2.8-1.6 2.4zm219.8 184c.3.9.5.1-.9 2.8h-.3c-.9-1-1-1.6-.4-2.6 0-.1-.2-.3.7.9.2-1 0-.7.9-1.1zM215.9-1.2c-.7 2-.7 2-2.5 1 .4-1.6 1.6-.3 2.5-1zm-87.4 182c-.7-.1-1.2-.2-1.9-.3.2-.6.3-1.3.5-1.8 1.5.1 1.5 1 1.4 2.1z"/>
      <path d="M180.4 182.6c.7.7.4.1 1.4 2.6-1.8-.1-2.2-.9-1.4-2.6zm-97.7 55.3c.1.2.1.4.2.6-.3 1.5-1.2.7-2.7 0 .5-1.5 1.6-.7 2.5-.6zM173.8 9.2c1.5 1 1.5 1 1 2.5-1-.4-1.2-1.2-1-2.5zm88 177.7c-.1.6-.1 1.1-.2 1.6-1.3 0-1.3 0-2.1-1.2.7-.1 1.4-.3 2.3-.4zM59.1-.9c-.3.8-.5 1.4-.8 2.3-.4-.3-.6-.6-.9-.8 1-.8.3-1.3-.6-1.8.5-.4.1-.4 2.3.3zM189 44.6c.2 1.4 2 1.4 1.4 2.9-1.7-.7-1.8-.7-1.4-2.9zM-9 164.1c.4.7.7 1.2 1.1 1.9-.9 0-1.6 0-2.3-.1-.3-1.1.5-1.4 1.2-1.8zm161 12.4c-.9 0-1.7-.1-2.5-.1 0-.8.5-1.3 1.3-1.2.7 0 1.3.2 1.2 1.3zm24.8-10.5c0-2 .5-1.5 2.6-.1-.3.5.1.4-2.6.1zm-17.6 41.8c1.1.4 2.2.7 2.4 2.3-1.3-.4-2.4-.7-2.4-2.3zm53.2-76.7c.8.8.4.2 1.4 2.1h-2.6c.5-.9.8-1.4 1.2-2.1zm-106.8-2.9c.3-1.1.5-2 .8-2.9 1.2 1.8 1 2.6-.8 2.9zm157.9-42.8c-.7.7-1.1 1-1.6 1.4-.8-.9-.8-.4-.5-1.9.6.1 1.1.2 2.1.5zM154.6 200.7c1.5-.5 1.4-.5 1.3-.5.2.6.3 1.2.5 1.8-.5.3-.9.5-1.5.8-.3-2.2-.4-2.1-.3-2.1zM299.9 169l1.4-1.4c.8.9.4 1.6.1 2.5-.6-.4-.9-.6-1.5-1.1zM155 137.3c-.3-1.2-.2-2 1.1-2.4l.6 1.5c-.6.3-1 .6-1.7.9zm-167.9 35c1.2-.8-.6-1.9.9-2.7.4.8.8 1.5 1.3 2.4-.8.1-1.3.2-2.2.3zM9.8 81c1.2.9.8 2.3-1.7 2 .6-.8 1.1-1.4 1.7-2zm227.6 67.9c1-.7 1.8-.8 2.6 0-.9 1.2-.9 1.2-2.6 0zM248.3 70c-1-.3-1.6-.4-2.4-.6 1.2-1 .6-.8 2.3-1.2.1.5.1 1 .1 1.8zM10 182.6c.4-.7 1.1-1 1.7-.4.9 1-.4 1.3-.6 2.4-1.3-2.2-1.1-1.8-1.1-2zM175.2 57.4c.7 1.2.7 1.2-.6 2.7-1.3-1.4.3-1.9.6-2.7zM91.6 233.8c-.8.3-1.4-.1-1.9-.9 1.1-.5 2-.5 3-.4-.1-.1-1.2 1.3-1.1 1.3zm85.9-33.7c-.6-.4-1.3-.5-1.4-1.7 0-.1.4-.4.6-.4 1.3.3 1.1.7 1.3 1.9-.2.1-.4.1-.5.2zm-25.4-6.4c1.3.9 1.4 1.9 1.1 3.1-1 .2-1-.2-.9-1.1.1-.5-.1-1.1-.2-2zm77.1-84.8c-.2-.9-.3-1.4-.5-2.1.9.3 1.6.4 2.7.7-.9.5-1.4.8-2.2 1.4zm-37.1 90c.1.8.2 1.4.1 1.9 0 .1-1 .3-1 .2-.8-1.7-.1-1.5.9-2.1zM35.4 168.4c1.2-1.2 1.3-1.2 2.8-.3-.9.9-1.6 1-2.8.3zm273.1 14.9c-.5 1-.7 1.5-1.1 2.4-.5-.7-.7-1.1-1.2-1.7.8-.3 1.4-.4 2.3-.7zM187.1 61.5c-1.3-.7-1.8-1.7-2-2.8 1.9 1 1.4.3 2 2.8zm70.6 12.9c.6.4 1.2.9.8 2.1-.7-.5-1.3-.9-2.1-1.4 1.3-.8 1-.6 1.3-.7zm-5.7 82.2c.9.5 1.4.9 2.1 1.2-.5.7 0 .4-2.2.8 0-.6.1-1.2.1-2zm-4.9-.3c-.5-.4-.9-.6-1.3-.9.5-1.5 1.8-.5 2.6-.9-.5.6-.9 1.1-1.3 1.8zM82.3 68c-.8.5-1.3 1.3-2.1.4-.2-.2-.1-.9.2-1.1.9-.8 1.3.1 1.9.7zm88.4-9.7c.3.6.6 1.1.9 1.8-1.7.2-1.7.2-.9-1.8zM79.6 230c.6-.8 1.1-1.7 1.8-2.7.5 3.7-2 2.2-1.8 2.7zm93.5-44.9c-1.8.3-2.3-.7-3.1-1.6 2.7.6 2 .2 3.1 1.6zm-31.7 13.4c.7 1.1.5 2.2-.2 2.3-.2 0-.8-.6-.7-.7.1-.6.5-1 .9-1.6zm69.9-64.8c.2 1 1.3 1.9.5 3.4-1.1-1.2-1.2-2.2-.5-3.4zM-37.5 43.9c2.1.1 2.2.2 1.5 1.9-1.1-.2-.8-1.2-1.5-1.9zM39.9-5.9c-.6.6-1.3.9-1.8 0-.4-.5 1-2.1 1.8 0zm62.3 244.5c.6.4 1.7 0 1.6 1.3 0 .2-.5.5-.7.5-.8-.2-1.7-.4-.9-1.8zm-85.7-9.7c-.6-.3-1.2-.7-2-1.2.6-.4 1.1-.6 1.6-.9 1 1.9 1 1.5.4 2.1zM-.5 79.1c-.5-1.7-.5-1.7 1-2.9.1 1.1-.2 1.9-1 2.9zm239.6 92c-1.2 0-1.6 2.1-3.1.9 1.2.1 1.6-2 3.1-.9zm33.5-20c1.2-.2 2.2-.8 2.8.6-1.1.6-1.8.2-2.8-.6zm-146 18.9c.2 1 .3 1.6.4 2.3-1.9-.5-2-.7-.4-2.3zm34.8 70.4c.9.4 1.5.7 2.4 1.1-2 .7-2.3.6-2.4-1.1zm-21.2-34.6c-.9-.4-1.6-.7-2.5-1 .9-.9 1.7-.3 2.7-.1 0 .3-.1.7-.2 1.1zm-42.4 27c-.3-.9-1.5-1.7-.4-3.1.7 1.1 1 2.1.4 3.1zm192.9-58c.6-.1 1.2-.2 2-.4v2c-2.3-1.2-2-.9-2-1.6zm-85.6-34.2c-.4 0-.8.1-1.3.1.3-2.1-.1-1.6 1.6-2.1-.4 2.2-.4 2-.3 2zm27-59.6c-1.8-2-2-1.9 1.1-1.4-.4.6-.7.9-1.1 1.4zm79.1 97.9c-.8 0-1.6.1-2.4.1.4-1.2.8-1.3 2.4-.1zm-44.3-28c-.5-.5-.9-.9-1.5-1.6.9-.2 1.5-.3 2.5-.4-.5.9-.7 1.4-1 2zm13.7-32.2c-.9 1.1-1.6 1-2.4.2.7-.8 1.4-1 2.4-.2zm-81.1-28.6c.9 1.1 1 1.8.4 2.6-1.3-.5-.8-1.4-.4-2.6zM64.1.1c.1.7.4 1.1.2 1.3-.2.3-.7.5-1.1.5-.2 0-.6-.8-.5-.9.3-.3.8-.5 1.4-.9zm202 186.1c-.1.8-.1 1.4-.2 1.9-.8.3-1.2.1-1.3-.6-.1-.8.4-1.2 1.5-1.3zM186.4 14.4c.4.4.7.7 1.1 1-2.7 1.9-2.4 1.6-1.1-1zm-196 149.3c-2.6 2-2.1 1.8-2.6 1.4.2-.6.1-1.8 2.6-1.4zm32.9 9.1c1.5-1 1.7-.8 2.2 1.6-.9-.6-1.5-1.1-2.2-1.6zM194.2 50.6c-1.1-.4-.9.4-1 1.4-1.8-2.6-1.7-2.3 1.1-1.9 0 .2 0 .3-.1.5zm57.3 34.9c.5-.1 0-.2 1.6.2 0 .3 0 .8-.1.9-.9.8-2.2-.1-1.5-1.1zm-43.6 38.6c0 1 0 1.6.1 2.4-.7-.3-1.3-.5-2.2-.8.8-.6 1.3-1 2.1-1.6zM29.1 20.9c-.5-.7-.9-1.1-.3-1.7.4-.4.5-1.2 1.4-.7-.3.7-.7 1.5-1.1 2.4zm207.7 124.5c.8-.4 1-2.1 2.5-.9-.8.5-1.2 1.6-2.5.9zm-176 67c-1.3-.5-.7-1.7-1.3-2.8 1.3.2 1.8.6 1.5 1.6-.1.2-.3 1.3-.2 1.2zm161.9-100.3c-1.2-1.7-1.2-1.7 0-2.9-.1 1.1.9 1.8 0 2.9zM37 3c-.9-.3-2.2.1-2.9-1.5 1.3.2 2.2.6 2.9 1.5zm210.6 29.5c-.2.7-.3 1.1-.5 1.8-.4-.3-.9-.5-1-.8-.2-.9.4-1.2 1.5-1zM6.8 216.3h1.7c-.1.6-.3 1.2-.5 2.2-.5-1-.8-1.6-1.2-2.2zm162.1-19c1.7-.6 1.6.7 2.2 1.3-.4.1-.8.2-1.3.3.1.1.2.2-.9-1.6zm78.7-19.3c.8-.1 1.4-.2 2-.3.4.6.3 1.1-.4 1.3-.6.2-1.2 0-1.6-1zM77.8 157.6c-.6-2.3 1.6-1.7 1.5-1 0 .8-.6 1-1.5 1zm29 2.7c-1.8-.4-1.8-.4-.9-2.4.4.9.6 1.5.9 2.4zM91 185.2c.8-.3 1.3-1.1 2-.3.2.2-.1.9-.2 1.4-1.6-.3-1.1 0-1.8-1.1zM230.2 78c-1.2.2-1.9.2-2.2-.9.9-.3 1.3.2 2.2.9zM16.9 118.2c.7-2 2.3-.6 1.9 0-.6.8-1.2.4-1.9 0zm74.5 59.2c-.7.4-.9 1.5-2.4 1.2.9-.6 1.1-1.8 2.4-1.2zM187.2 6.6c-.5.6-1 1.1-1.6 1.8-.4-1.7-.4-1.7 1.6-1.8zm-28.7 64.2c-.3-.6-.5-1-.9-1.7h2c.2.5.4.2-1.1 1.7zM35.6 165.2c.9-1.2 1.4.2 2.1.2-.9 1.1-.9 1.1-2.1-.2zm130.9-93.3V70c.5.1.9.2 1.1.3-.2 1.1-.5 3.5-1.1 1.6zM117.8 184c-.6-1.2.7-1.8.8-2.7.7 1.3-.6 1.8-.8 2.7zm165.9 2.2c-.5 1.2-1.5 1.1-2.8.9 1.6-2.1 2.7-.6 2.8-.9zM-17.8 158c-.1-.9.2-1.5 1-2 .4 1.6.4 1.6-1 2zm130.5-48.8c-.7.7-1 1.1-1.3 1.4-.3-.1-.5-.2-.5-.2.3-1.8.1-1.3 1.8-1.2zm35.4 97.5c-1.8 1.5-1.9 1.9-1-1.5.9 0 .5 1 1 1.5zm-8-109.7c.9 0 1.6-.1 1.7.9 0 .4-1.4 1.2-1.7-.9zm47.8-18.4c-.2-.9-.6-1.9.6-2.7.3 1.2.3 1.2-.6 2.7zM26.1 9.3c-.8-.6-1.2-1-1.8-1.5.6-.3 1.1-.5 1.7-.9 0 .8 0 1.4.1 2.4zm267.1 183.9c-.9.4-1.4.9-1.9.9-.6-.1-.7-.7-.2-1.3.5.1 1.1.2 2.1.4zm-185.3-21c.4-.9.7-1.5 1-2.1 1.1.9 1 1.2-1 2.1z"/>
      <path d="M285.5 186.2c-.4.5-.7 1-1.4 1.9-.3-1-.4-1.4-.5-1.9 2.1 0 1.9.1 1.9 0zM-40.3 48.4c-1.2 0-1.7-.8-2.4-1.5.5-.5 0-.7 2.4 1.5zM48.6 4.6c1.1.6 1.5 1.1.9 1.7-.1.2-1 0-1-.1 0-.4.1-.9.1-1.6zM46.7 191c-2.5.1-1.5-1.6-1-1.6.9 0 1.2.6 1 1.6zM-7.5 22.4c.3.5.6 1 1 1.6-1.6.2-1.6.2-1-1.6zM13.7 167c1.2 1.3 1.2 1.5.3 2.8-1.1-1 .1-3-.3-2.8zM6.3 1.8c.5.9.2 1.4-.6 2-.3-.9-.3-1.5.6-2zm194.5 143c2.3-.8 1.8 1.1 1.4 1.2-.9.2-1-.6-1.4-1.2zm110 27.5c.9-.4 1.7-.6 2.5.6-2.9-.1-2.5.1-2.5-.6zm-125-152.2c.6 2.9.7 2.5.2 2.8-.9-1.5-1.6-2.2-.2-2.8zm-27.1 162.1c-.5-.4-1-.9-1.5-1.3.2-.3.4-.6.8-1.1 1.3 2.7 1.2 2.2.7 2.4zM15.1 11.7c-.7.2-1.3.4-1.4-.6 0-.9 1.6-.8 1.4.6zm176.3 45.1c-1.2.5-1.6-.3-2.2-1.2 1.4 0 1.4 0 2.2 1.2zm-48.8 170.5c-1.5.3-1.1.7-1.8-.9 1.2-.5.7-.8 1.8.9zm-30.2-124.2c-.7-.1-1-.1-1.7-.2.5-.7.8-1.1 1.3-1.9.2.9.3 1.4.4 2.1zm-72.1 61.3c.9 1.2 1.1.6-.4 2.2-.4-.3-.5.1.4-2.2zm247.8 33.7c-.1-1.9-.1-1.9 1.8-1.9-.6.7-1.1 1.2-1.8 1.9zm-29.4-40c-.6-1.6-.6-1.6 1.1-1.9-.4.7-.7 1.2-1.1 1.9zm-3 54.5c-1 .4-1.5.4-1.8-.7.7-.3 1.3-.3 1.8.7zM-28 94.5c-.9.6-1.6.7-2.2-.2.8-1 1.4-.6 2.2.2zm29.1-59c-.3-.2-.4-.2-.4-.2-.2-.5-.7-1.1 0-1.6.1-.1.7.1.7.2-.1.5-.2 1-.3 1.6zm147.8 9c.2-.6.3-1.2.5-1.8 1 1.3 1 1.4-.5 1.8zM54.2 5.1c-.1.7-.1 1-.2 1.5-.7-.4-1.3-.7-2.1-1.1.8-.2 1.4-.3 2.3-.4zm56.4 113.3c-.4-.4-.8-.8-1.3-1.4.7-.2 1.2-.3 1.7-.4.1 1.9.2 1.6-.4 1.8zm-1 58.2c-.2-.9-.4-1.6-.6-2.5 1.1.2 1.3.9 1.5 1.5 0 .3-.5.6-.9 1zM69.6-2.7c.9-2.3.9-2.3 2.2-1.1-.7.3-1.2.6-2.2 1.1zm106.8 16.3c-.9.3-.6.6-1.3-1 .8-.4.5-.6 1.3 1zM30.3 29.3c0 1-.1 1.5-.1 2.6-.6-.8-1.5-.8-1.1-1.7.1-.3.6-.5 1.2-.9zm198.6 108.3c-.2.7-.5 1.4-.9 2.6-.3-.9-.5-1.3-.7-1.8 1.7-.8 1.7-.8 1.6-.8zm-73 40.1c1.5.6 1.1.4 1.3 1.4-1.3.1-1 .5-1.3-1.4.1 0 0 0 0 0zm-42.3-48.6c0 1.9 0 1.9-1.4 1.4.3-.5.3-1.3 1.4-1.4zm40.4 60.2c-.3-.6-.6-1-.9-1.5 1.1-.8 1.4.3 1.9.6.1-.1.2-.2-1 .9zm-50.1 54.9c.9-.2 1.5-.4 2.3-.6-.7 1.5-.8 1.5-2.3.6zm129.7-77.6c-1.4.4-2.2.4-2.6-.8.7.2 1.4.4 2.6.8zM3.3 79.4c-2.2-.4-1.7-.1-1.5-1.6.8 0 .4-.3 1.5 1.6zM252 135.2c-.1 1.3-.8 1.3-1.8 1.4.3-1.1.9-1.3 1.8-1.4zM41.2 243.1c.6-.7 1-1.6 2.2-1-.2 1.3-1.3.8-2.2 1zm267.5-76.4c1.1.3 1.8.6 1.6 1.9-.8-.3-1.5-.5-1.6-1.9zm-221-27.2c1.8.1 1.3-.1 1.5 1-1.5 0-1 .2-1.5-1zm-38.6-4.9c-.4 1.2-.8 1.5-1.4 1.1-.2-.1-.1-.5-.2-.8.4-.2.9-.2 1.6-.3zm165.2 6.8c-1.4-.2-1.4-.2-1.4-1.5.6-.3.3-.6 1.4 1.5zM35 164.9c-.1.6-.2 1.1-.4 1.8-1-1.3-1-1.5.4-1.8zM-15 47.5c-1.7-.2-1.7-.2-1.5-1.7.6.6.9 1 1.5 1.7zM1.5 168.3c-1.2.8-1.2.8-2.1 0 .2-.6-.3-.5 2.1 0zm127.9-54.5c-1.1 1.4-1.1 1.4-2.3.1 1.2 0 .6 0 2.3-.1zm-67.9 35.9c0-1.1-.3-1.2.8-2.1.1-.1.5.2.5.2-.2 1.4-.4 1.2-1.3 1.9zm120.2 55c-1.7-.6-1.4-.2-1-1.7 1.5 1.4 1.3 1 1 1.7zm-15.8 2.3c.9 0 1.3.4.7 1.7-1.3-1.6-1.2-1.2-.7-1.7zm41.9-87.6c-.3 1-.5 1.6-.7 2.6-.6-1.7-.6-1.7.7-2.6zm-20.1 115c-1.1-.6-2-.8-1.7-1.8.7-.3.4-.5 1.7 1.8zm-37.3-1.1c-.6-.4-1.4-.8-.4-2 1 2.1 1 1.7.4 2zm-170.2-103c.1 1.6.5 1.2-1.5 1.5-.2-.4-.4-.1 1.5-1.5zM46 4.2c1.9.1 1.6-.4 1.7 1.5-.5.1-.2.3-1.7-1.5zm133.1-.9c.1.7.1 1.4.2 2.1-.9-.6-.9-.6-.2-2.1zm-42 70.8c-.4.5-.7.9-1.1 1.5-.3-.5-.6-.7-.5-1 0-1.1.7-.8 1.6-.5zM179.4 47c.9 1 .7 1.5 0 1.9-.1.1-.6-.3-.6-.3.1-.5.3-1 .6-1.6zm81.8 40.2c-1 .4-1.6.4-2.3-.5 1-.6 1.6-.3 2.3.5zM146 171.1c-1.8.1-1.8.1-1.5-1.5.4.5.8.9 1.5 1.5zM16.1 184.7c.9 1.2.4 1.8.2 2.4-1-.2-.9.3-.2-2.4zm217.5-63.3c-.5 0-1 .1-1.5.1.1-.9.2-1.5 1.1-1.6-.1-.1-.1-.2.4 1.5zm-37.4 80c-1.3 1.5-2 .1-1.6-.4.6-.8 1 0 1.6.4zM20.1 171.3c-.8.1-.9 1.3-1.7.6-.1-.1-.2-.5-.1-.7.3-.8.9-.5 1.8.1zm144.2 27.8c2.3 0 1.7-.2 2 .8-1 .3-.5.6-2-.8zm-77.5-43.6h-.3c-.5-.3-1.3-.3-1.1-1.2.2-.6 1.7-.3 1.4 1.2zm-30.9 54.3c1.7-1.5 1.3-1.3 1.7-.9-.2.6-.2 1.5-1.7.9zm-7.5-66.2c.9-.1 1.3.1 1.2.8-.1.4-.5.7-.8 1.1-.5-.3-.4 0-.4-1.9zM-19.3 96c-1.7.4-1.2.5-1.9-.4 1.2-.7.7-.8 1.9.4zM84.1 219.5c0-1.9 1.7-1.5 1.6-.9-.1 1-.7 1-1.6.9zm77.5-3.6c-1.8-.4-1.8-.4-1.7-1.5.9 0 1.2.6 1.7 1.5zM71.3 96.4c-.6 0-1 .1-1.3 0-.2-.1-.4-.7-.3-.8 1.2-1 1.3.2 1.6.8zm-105 6.5c.8.6 1.1 1.3.5 2.3-1-.7-.5-1.6-.5-2.3zm26.5-58.4c.6 2.3-1.1 2.1-1.3 1.6-.3-.5.8-1.2 1.3-1.6zm161.7 168c-1.4.8-1.5.7-2-1.1.7.3 1.2.7 2 1.1zm94.6-133.2c-.2-.7-.3-1.2-.4-1.9.7.3 1.2.6 1.9.9-.5.3-.9.6-1.5 1zm-204 117.8c0 .7.1 1.6-.9 1.8-.5-1.1.3-1.4.9-1.8zm124.5 40.1c0 .6.1 1-.1 1.3-.1.2-.7.4-.8.3-.3-.2-.4-.6-.5-.9.3-.2.5-.3 1.4-.7zm65.2-216c1.1-.7 1.5.3 2.2.4-1 .8-1 .8-2.2-.4zm-.9 11.6c0 .6.4 1.5-1.1 1.4-.1 0-.3-.6-.2-.8.1-.3.5-.3 1.3-.6zm-82.4 177.7c.2.3.6.8.5.9-.5.8-1.1.4-2 0 1.7-1 1.6-.9 1.5-.9zm79.6-95.3c.6 1.5.2 1.8-1.2 1.9.5-.8.8-1.2 1.2-1.9zm12.6-57c.2 1.1.5.8-.8 1.4-.3-.9-.5-.5.8-1.4zM159 202.6c-.4 1.7 0 1.5-1.5 1.1.3.7-.4-1.9 1.4-1.3.1.1.1.1.1.2zm18.4-34.1c-1.6.1-1.7-.8-2.1-1.3.6-.6.1-.8 2.1 1.3zM247.7 78c.6 1 .4 1.8-.5 2.8-.7-1.7 1.1-3 .5-2.8zm43.2 84.6c1.1 1 .4 1.5.1 2.2-.6-.1-.6.4-.1-2.2zm-83.4-62.1c-.6.3-1 .4-1.4.7-.1-.3-.2-.5-.1-.7.2-.9.7-.8 1.5 0zM92.2 216.1c-.4.2-.5.3-.6.3-1-.3-1-.9-.5-1.5.9-.2.6-.5 1.1 1.2zM260.5-10.4c-.4-.2-.9-.4-1.5-.7.4-.2.7-.5 1-.5.5.2 1 .5.5 1.2zM14.2-.3c.2 1.5-.7 1.8-1.1 2.3-.6-.4-.7 0 1.1-2.3zM10 23.3c-.7.3-1.4.9-2-.6 2.4.1 2-.1 2 .6zm3.1.4c0-.4.1-.9.1-1.4.3.1.5 0 .6.1.1.6.1.6-.7 1.3zm75.6 204.2c.3-.5.6-.8 1.1-1.4.2.5.4.7.4.9-.1.9-.6 1-1.5.5zm78.9-134c1.2 1.5 0 1.5-.7 1.9.2-.6.4-1.1.7-1.9zm-8.2 9.9c-.5.7 0 .6-1.6.8.1-.6.2-1 .3-1.6.5.4.9.6 1.3.8zM22 16.3c.3-1.6-.3-1.1 1.7-2 .4.7.6.2-1.7 2zM258.8-2.6c-.6 1.2-.6 1.2-1.8 1.2.4-1.3 1.9-1 1.8-1.2zm-126 177.8c.9-.4 1.5-.6 2.1-.9-.3.8-.6 1.7-2.1.9zM178 47.1c.4 1.1-.2 1.5-1.2 1.5l1.2-1.5z"/>
      <path d="M258.8-2.5c.4-.5.8-1 1.2-1.6.5 1.6.4 1.6-1.2 1.6 0-.1 0 0 0 0zM-20.4 129.4c.4-1.6.4-1.6 1.5-1.1.1.6.4.3-1.5 1.1zm192.4-66c-.2.8.2 2-1.7 1.9.8-.8 1.2-1.3 1.7-1.9zm-6.9 152.1c-.3-.4-.5-.9-.8-1.3 0 0 .3-.3.5-.3.7.1.9.7.3 1.6zm50.1-53.8c-1.4.5-1.8-.4-2.6-.6.4-.7-.1-.8 2.6.6zm-36.6 60.4c-.8-.8-.4-1.3.1-2.1.5.8.7 1.3-.1 2.1zM-6.9 143.5c-.2-.8-.2-1.5 1.2-2.1-.8 2.7-.5 2.3-1.2 2.1zm19.7-39c-1.3-.9 0-1.9.5-1.3.4.6.2 1-.5 1.3zm23.8-12c.8.3 1.7.1 1.6 1.2-.9.3-1.4-.1-1.6-1.2zM-.1 172.3c1.6.7 1.6.7.5 1.8-.1-.5-.2-1-.5-1.8zm144.6 18.6c.3-1.3 1.2-1.2 2.2-1.3-.5 1.3 0 1-2.2 1.3zM64.8 46.4c-1.4.7-1.7.2-1.9-1.2.7.5 1.2.7 1.9 1.2zm78.7 156c-.7-.6-1.1-.9-1.5-1.3.3-.4.6-.7 1.1-1.3.1 1 .2 1.5.4 2.6zm30.2-5.8c.4-.5.1-1.7 1.9-1.5-1.7 2-1.4 1.8-1.9 1.5zm.3 1.7c.4.4 1.6.4.7 1.9-1.4-1.8-1.3-1.4-.7-1.9zM28.5 164.9c.6 2.7.6 2.3.1 2.4-1-2.6-1.1-2.1-.1-2.4zm264.7 17.3c.8.1 1.2.2 1.6.3-.6 1-.6 1-1.6-.3zm-139.7-2.1c.6.7.6 1.3-.8 1.6.2-2 0-1.7.8-1.6zm94.8-49.2c.1 1.4-.5 1.6-1.5 1.3.4-.4.8-.7 1.5-1.3zm-100 62c1-.8 1.6-.6 2.2.5-.8-.1-1.3-.3-2.2-.5zm-86.4-42.1c1.1-.4.7-.6 1.4.8-.8.3-.5.6-1.4-.8zm106.8 28.6c-.9-.6-1.4-1-.8-2 .9.4.9 1 .8 2zM293.9 166c.3 1.2.1 1.9-1.3 1.7.5-.6.9-1.2 1.3-1.7zM140.7 67.1c-.6-1.2-.1-1.5.5-1.8.6.2.6-.1-.5 1.8zM67.4 230.5c-.4-.8-.7-1.5-1.1-2.4 1.3.8 1.3.8 1.1 2.4zm204.9-42.7c2.1 1 2.1.6.3 1.2-.3-1.3-.2-1.2-.3-1.2zm-96.6 0c-.6-.5-1-.8-1.4-1.1 1.1-.6 1.6-.5 1.4 1.1zm98.3-2.4c.7-.8 1.3-.5 1.9.3-1 .6-2.1-.7-1.9-.3zm-164-46c.6 1.3.6.9-.2 1.4-.6-1.1-.6-.7.2-1.4zM68.8-.4l1.5-1.5c.1 1.4-.4 1.5-1.5 1.5zM49.9 202.2c-.8.1-1.2.1-1.9.2.6-.9.9-1.5 1.9-.2zm90.4-122.9c-.7-1.2-.7-.9 0-1.3.6 1.3.6 1 0 1.3zm25 132.2c-.7-1.2-.7-1.2.9-1.6-.8 1.7-.7 1.5-.9 1.6zM40.9 19.8c-.5-.3-.9-.7-1.4-1 .8-.8.8-.8 1.4 1zM244-8.2c.3-1.2.3-1.2 1.5-.6-.6.2-1 .4-1.5.6zm-68.7 65.5c-.4-.1-1.1-.1-1.2-.3-.3-.6.1-1 1-1.1.1 1.6.1 1.5.2 1.4zm122.6 101.2c-.7.2-1.2.3-1.7.5.3-.7.6-1.6 1.7-.5zm-204-68.2c.1-.6.1-1.1.2-1.7 1 .9 1 .9-.2 1.7zM194 18.8c-.4.3-.9.7-1.4 1.1-.2-1.1-.2-1.1 1.4-1.1zm-100.1 212c-.1 1.3-.1 1.3-1.3 1.6 0 .1 0 .2 1.3-1.6zm34.2-113.1c-.1-1.2.2-1.5 1.5-1.3-.6.5-1 .8-1.5 1.3zM79 120c-1.2-1.2 0-1.9.4-1.5.4.6.2 1.1-.4 1.5zM205.1-2.8c1.1-.3.8-.5 1.4.5-.8.4-.4.6-1.4-.5zm51.7 157.1c1-.2 1.4-.2 2.1-.3-.3.6-.5.9-.8 1.4-.3-.3-.6-.5-1.3-1.1zm-161 81.8c.9.1 1.4.1 1.9.1-.4.9-.4.9-1.9-.1zM-30.4 103c.2-1.4.9-1.3 1.5-1.2.3.8.6.6-1.5 1.2zm97.8-48c-.2 1.7 0 1.4-.7 1.4 0-1.7-.2-1.5.7-1.4zM96 243c.3 1.1.5.7-.7 1.4-.4-.7-.6-.4.7-1.4zm82.6-44.4c1.3-.2 1.4.5 1.7 1.3-.9-.3-.9-.3-1.7-1.3zm-100.3 34c.7-.6 1 0 1.5.6-.4.2-.7.3-1.1.5-.4-1-.4-1.2-.4-1.1zm216.9-43.5c.4-1.2.9-1.1 1.5-.7-.4.7 0 .5-1.5.7zm-87.5-66.6c.5-.7.5-.7 1.4-.6-.5.7-.5.7-1.4.6zM45.3 184.9c.2.5.4.8.4 1 0 .2-.5.4-.7.4-.2-.1-.5-.5-.5-.7 0-.3.4-.5.8-.7zm-26.9 39.6c1.1.4 1.1.8.2 1.6-.1-.7-.2-1.2-.2-1.6zm127.3-19.6c-.5.8-.8 1.3-1.3 2.1.1-1.2.1-1.2 1.3-2.1zm-88.8-68.2c.4 0 .8-.1 1 0 .1 0 .2.6.1.6-.2.1-.6.2-.8.2-.1 0-.1-.4-.3-.8zm23.3-57.6c-.5-.4-1.1-.7-.5-1.9 1.1 2 1.1 1.6.5 1.9zm7.3-22.2c0 1-.2 1.5-.9 1.4-.2 0-.3-.4-.4-.6.3-.2.7-.4 1.3-.8zM5.1 222.4c-.3 1.5-.3 1.5-1.6.5.5-.1.9-.3 1.6-.5zm29.4-82.5c1.4 0 1-.2 1.3.6-1.2.3-.8.4-1.3-.6zM279 76.6c-.2.8-.2 1.2-.3 1.7-1.2-.8-1.2-.8.3-1.7zM233.7 139c1.1-1.8.8-1.5 1.3-1.3-1.1 1.8-.8 1.6-1.3 1.3zm-202-3.7c0 1.1.3.8-.8 1.3-.3-1.2-.4-.8.8-1.3zm-18 36.3c-.6-1.3 1-1.6 1-.8.1.6-.3.9-1 .8zm246.6-91.3c.6.8.7.4-.4 1.8-.5-1.1-.2-1.5.4-1.8zm-9.5 57.9c1.3-.2 1.6.2 1.5.8 0 .2-.3.3-.5.4-.3-.3-.5-.7-1-1.2zM172.3 184c-.6-1.6.4-1.1.9-1.1.1.2.2.3.3.5-1.3.6-1.3.6-1.2.6zM262.2-7.6c-.5.2-.8.4-1.3.6.2-1.3.2-1.3 1.3-.6zm-98.5 208.5c-.8-1.3-.8-1.3.6-1.8 0-.1 0-.2-.6 1.8zm6-21.6c.7 1.3-.3 1.5-.4 2.1-.5-.2-.5.2.4-2.1zm1.8-5.6c1-.5 1.3.1 1.6.4-.3.5 0 .6-1.6-.4zm30.2-70.9c.3-.9.8-1 1.7-.7-.5 1.6-1.8.5-1.7.7zm17.6 73.8c.1 1.4.3 1-.5 1.5-.4-.4-.5 0 .5-1.5zm21.1-161c-.6 1.6-.3 1.4-1 1.2.5-1.7.2-1.5 1-1.2zm-25.6 169.8c.4-.5.1-.6 1.2.2-.5.7-.2.7-1.2-.2zM-27.8 68c-.7 1.2-.5 1.1-1.1.6.9-1 .7-.9 1.1-.6zM151 171.4c.6.1 1.2.2 1.8.4-1.1.9-1.1.9-1.8-.4zm-46 75.7c1.2 0 1.4.5 1.2 1.3-.6.2-.3.5-1.2-1.3zm37.1-79.1c-.3.5-.5.8-.8 1.1-.2-.1-.4-.2-.4-.3-.2-.7.2-.9 1.2-.8zm70-162c-.4.1-.8.1-1.3.2.4-.7.4-.7 1.3-.2zm-80.4 171.4c-.9-.5-.9-1.1-.6-1.8.7.1.5-.2.6 1.8zM-22.7 94.2c-.2-1.4 1.2-1.2 1.2-.7-.1.8-.6.7-1.2.7zM50.1-4.7c1.2-.3 1.2-.3.9 1-.3-.4-.6-.7-.9-1zM29.6 46.2c0-.9.4-1.2 1.2-1 .1.8-.3 1.1-1.2 1zm.3 123.4.9-.9c.1.2.4.5.3.6-.3 1-1.3-.1-1.2.3zm51.8-99c1.4.3 1.5.8 1 1.8-.4-.6-.6-1.1-1-1.8zm-5.1 77.3c-.2.5-.5 1-.9 1.9-.1-1.2.3-1.6.9-1.9zm-18.1 59.4c1.3.2 1.3.2.8 1.2-1.1-.1-.5-1.3-.8-1.2zm41.7-80.5c.3 1.1.4.7-.3 1.2-.5-1-.6-.7.3-1.2zm67.6-110.3c-.8.5-1.3.2-1.5-.7.8-.4 1.3-.1 1.5.7zM91.5 186c.1.6.2 1.2.3 2.1-.9-.9-1.4-1.5-.3-2.1zm48.7-96.9c-1 .6-1 .6-1.9 0 .7-.4 1.2-1 1.9 0zm39.2-80.7c.7-1.8.5-1.5 1-1.5 0 1 .2.6-.5 1.6-.2 0-.4-.1-.5-.1zM103 175.5c.7 0 1 0 1.3.1.2.1.3.5.2.6-.2.2-.5.4-.8.4 0 0-.2-.4-.7-1.1zm42.4-84.6c-.7.4-1.2.6-1.8 1 .2-1.1.7-1.4 1.8-1zm18.5-34.4c-1.3-.3-2-.5-1.2-1.8.3.7.6 1.1 1.2 1.8zM75.6 253.4c.5 1 .7.7-.3 1.3-.4-1-.4-.7.3-1.3zm51.8-109c-.1 1.5.1 1.1-.8 1.3-.1-1.3-.2-.9.8-1.3zm23.9-44.5c-.6-.4-1-.7-1.6-1.2 1.2-.3 1.5.1 1.6 1.2zm5.3-.8c.1-.9.4-1.2 1.2-.8-.1.8-.5 1-1.2.8zM98 229.3c-1-.9-.7-1.3.5-1.7-.3.7-.4 1.2-.5 1.7zm101.6-212c0 .4-.1.9-.1 1.3-.8-.5-.8-.5.1-1.3zm53.1 108c-.7 1-.5.8-1.1.4.8-.9.5-.9 1.1-.4zm2.3 27.2c-.8 1.1-1.2.8-1.8-.1.6.1 1 .1 1.8.1zM233.4 118c.9 1.1.9 1.1-.3 1.8 0 .1 0 .3.3-1.8zm28.8 67.2c1.2-.4 1.3.2 1.1 1.2-1.2-.6-.9-.3-1.1-1.2zm-50.4-27.5c-1.2.4-1.2-.4-1.1-1.1.3.4.7.7 1.1 1.1zm-22.4 47c-1-.6-.7-1.1-.4-1.6.7.1.6-.2.4 1.6zm43.5-96.9-.3-1.5h.6c.4.5.5.9-.3 1.5zM216 141.9c.3-1 .3-1 1.3.1-.5 0-.9 0-1.3-.1zm1.8-5.7c-.8.5-1.2.7-1.6 1-.1-.2-.2-.4-.2-.5.2-.6.6-.8 1.8-.5zm57.2 54.6c.1.5.1 1 .3 1.8-1.1-.7-.9-1.2-.3-1.8zM243.6 71.7c.1.7.1 1.1.2 1.7-.9-.6-.9-.6-.2-1.7zm50.1 118.8c0 1.1 0 1.1-1.1.9.4-.4.8-.7 1.1-.9zm-122.5 27c-.3-.7-.7-1.4-.1-1.8.7.3.7-.1.1 1.8z"/>
      <path d="M165.4 211.4c1 .9 1 .6-.1 1.5-.4-.3-.4 0-.1-1.4.1 0 .2 0 .2-.1zm19.6-44.5c-.7 1.1-1.3.7-1.9.4.1-.6-.3-.5 1.9-.4zM39.7 132.4c-.1.7 0 1.2-1 1.1.7-1.5.4-1.3 1-1.1zM32 .2c-.6-1-.1-1.3.4-1.5.6.4.7.1-.4 1.5zm234 200.1c-.7 1.1-.4 1.2-1.1-.4.3-.2 0-.2 1.1.4zM45 142.4c-.1.4-.1.8-.2 1.4-.9-.6-.8-1 .2-1.4zm-68-17.3c.2 1.1.2.8-.3 1.1-.4-.9-.4-.6.3-1.1zm36.2-78.3c1.2-.3.9-.4 1.1.5-1.2.2-.9.3-1.1-.5zm149.2 167.4c.4.4.8.7 1.5 1.3-1.1.1-1.4-.5-1.5-1.3zM-32.4 58.6c.8 0 .6-.3.8.6-.7 0-.5.1-.8-.6zM-22.2 41c.1.5.2 1 .4 1.9-1.2-.7-1.4-1.1-.4-1.9zm239.3 179.4c0 .3 0 .7-.1.9-.1.1-.5.2-.6.2-.2-.1-.3-.4-.3-.6 0-.2.3-.3.5-.5h.5zM-12.4 26.1c.6-.3.5-.4.8.4-.7.2-.4.2-.8-.4zm126.9 140.8c-.4.2-.7.4-1.1.6l-.3-.4c.3-.2.7-.5 1-.7.2.2.3.3.4.5zm78-111.6c.2-.7.2-1 .4-1.8.4 1 .6 1.4-.4 1.8zm-206.9-4.1c-.9-1.1-.9-.8-.2-1.3.7 1.2.7.9.2 1.3zm147.2 7c.9 1.3.2 1.5-.6 2.2.2-.8.4-1.3.6-2.2zm32.3.3c-.6-.5-.9-.8-1.2-1.2.9-.3 1.4-.3 1.2 1.2zm4.8 140.4c-.5.6-1.1.6-1.5-.3 1.6.4 1.5.4 1.5.3zm-1.8-86.2c-1.4.6-1.1.6-1.4.1 1.3-.8 1-.8 1.4-.1zm66.1 52.1c.6.4.6 0 0 1.4-.8-.5-.7-.2 0-1.4zm55 21.6c-.9.3-.6.3-1.7.2 0 .1-.1.2.7-1.1.4.4.7.7 1 .9zM81.7 76.3c.2.5.9.9.1 2-.8-2.1-.8-1.7-.1-2zm189.9 121.2c.5-1.5.3-1.3.8-1.1-.3 1.5-.1 1.3-.8 1.1zM247.7 78c-.9-.8-.9-.8.5-1.6-.6 1.8-.6 1.6-.5 1.6zm46.2 109.6c1.5-.5 1.2-.5 1.5-.1-.8 1.2-.5 1.2-1.5.1zm-145.7 6.1c.2.6.3.9.5 1.4-.5 0-.7.1-.8 0-.7-.4-.5-.8.3-1.4zm120.1-12.4c-.8-1-.8-.8-.1-1.3.7 1.2.7 1 .1 1.3zm-113.2 7.1c.5-1.1 1.1-.8 1.6.2-1.8-.3-1.6-.3-1.6-.2zm-7.2-99.9c-.6 1.2-.4 1-.8.9.4-1.3.2-1.1.8-.9zm31.4 85.5c.3.8.5.4-.8 1.6-.5-.7-.6-.4.8-1.6zM67.5 204.6c.1.9-.1 1.2-1 1.3-.2-.9.3-1 1-1.3zM180.9 87.5c-.6 1.6-.3 1.4-.9 1.2.6-1.7.3-1.5.9-1.2zM292.2 197c1.2.8.9.5 1 1.4-1.1 0-1.2-.5-1-1.4zm-309.5-38.3c.5-.1.8-.2 1-.1.1 0 .2.6.1.6-.2.2-.5.2-.8.2-.1 0-.1-.4-.3-.7zm179.4-21.8c-1.1.2-.8.4-1.2-.9.9-.1.6-.4 1.2.9zm7.6-96.1c.8.7.5 1.1-.3 1.8-.1-1.5-.2-1 .3-1.8zM63.6 217.6c.1.4.1.8.2 1.2-1.1-.6-1.1-.6-.2-1.2zm55.2-69.3c.8-1.3.6-1.1.9-.9-.6 1.4-.4 1.3-.9.9zM14.1 98.8c.1.9.2.7-.8.7 0-.7-.3-.5.8-.7zM46 183.1c-1.1.2-.8.4-1.3-.4 1-.5.6-.5 1.3.4zm46.9 56.7c0-.8.3-1.2 1.5-.9-1.3 1.5-1 1.4-1.5.9zm27.7-65c.2-.3.5-.5.8-.8l.3.2c-.8 1.2-.7 1-1.1.6zM48.9 43c.8-1.8.6-1.5 1.1-1.3-.7 1.8-.4 1.6-1.1 1.3zm-25 190.2c1.3 1 1.2.7.8 1.2-1.4-.8-1.2-.6-.8-1.2zm129.7-61.9c-1.4-.9-1.3-.6-.9-1.2 1.4.8 1.3.6.9 1.2zm16.1 41.4c.1.5.2 1 .4 1.6-.7-.4-1.2-.8-.4-1.6zm16.5-113.3c1.6-1.2 1.2-1.2 1.7-.6-1.6 1.2-1.2 1.2-1.7.6zm-91.4 84.8c.3 1.2 0 1.6-1.1 1.5.3-.6.6-.9 1.1-1.5zm-16 74.7c-.2.4-.4.7-.7 1.2-.4-.8-.3-1.3.7-1.2zm60.3-56.8c.1-1.3-.1-1 .6-1.1.1 1.1.2.8-.6 1.1zm-3.3 6.7c1.4-.5 1.1-.5 1.3-.1-1.3.8-1 .8-1.3.1zm127.3-49.2c.6 1.2.6 1.2-.6 1.8.7-2 .6-1.8.6-1.8zM253 180c.3.8.4 1.3.8 2.2-1.2-.5-1.4-1.1-.8-2.2zM6 162.9c-.6-.2-.5.2-.5-1.5.9.2.8-.1.5 1.5zm162 55.5c-.6.4-1.1 0-1.5-.8 1.9.2 1.6 0 1.5.8zM10 182.7c-.4.2-.5.6-1.3-.2 0 0 0-.8.9-.4.1 0 .4.3.4.6zm79.8-10.1c1.2 1.1 1.1.8.8 1.3-1.4-1-1.3-.8-.8-1.3zm17.4-198.7c.3-.8.4-1.2.6-1.8.6.8.5 1.2-.6 1.8zm51.4 260.2c.1.6.1.9.1 1.2-1.9 0-1.8.3-.1-1.2zM45.7 201.4c.3-.7.5-1.1.8-1.8.5 1.1.1 1.4-.8 1.8z"/>
      <path d="M263.6 158.6c.2.4.3.2-.5 1-.6-.8-1.4-.4.5-1zm-7.7 14.5c.6-.1.5-.3.7 1-.6.2-.4.4-.7-1zm-3.4 6.4c-.8-.7-.8-.5-.1-1.1.6.9.6.7.1 1.1zM35.3 242.6c-.8-.9-.8-.7-.2-1 .6 1 .6.7.2 1zm53.2-10.8c-.7-.9-.7-.9.2-1.9-.2.7-.2 1.3-.2 1.9zm94.7-221.7c-1.1-.1-.9 0-1.1-.4 1.1-.5.9-.7 1.1.4zM130 172.5c.8.4.8.4.5 1.6-.2-.6-.4-1-.5-1.6zm144.4 2c1.3.1.8 0 2 .7-2.1.2-1.7.4-2-.7zM104.3 106c-.7-.1-1.3-.2-.9-1.3.4.6.7.9.9 1.3zM8.5 41c.3 1.1.4.8-.4 1.2-.5-.8-.5-.5.4-1.2zm200.2 93.9c.4 0 .7-.1 1 0 .1 0 .1.5.1.5-.3.1-.6.2-.9.2-.1-.2-.1-.4-.2-.7zm83.6 52.4c.4-.2.6-.4.8-.3.1 0 .3.4.3.6-.1.2-.4.4-.6.4-.1-.1-.2-.4-.5-.7zm-110.6-69.7c-1.2.5-1 .6-1.2.1 1.1-.8.8-.8 1.2-.1zM211.1 2.8c1.7-.4 1.4-.5 1.6 0-1.6.7-1.3.7-1.6 0zm-24.2 101.9c.5-1.1.3-1 .8-.8-.4 1.3-.2 1.1-.8.8zm5.6-56.4c-1.4.6-1.1.6-1.4.1 1.3-.9 1-.9 1.4-.1zm40.7-27.8c0 1.5.2 1.3-.5 1.3 0-1.5-.1-1.3.5-1.3zm5.1 117.6c-1.2.3-1 .3-1.2.1.5-.5.2-.4 1.2-.4v.3zm-77 40.2c-.3.2-.5.5-.8.7l-.2-.2c.7-1.1.5-.9 1-.5zM2.1 60.6c.2-.6.4-1.8 1.4-.6-1.6.6-1.4.5-1.4.6zm138.8 27.2c.1 2 .3 1.8-.7 1.2.5-1.2.2-1.2.7-1.2zm-10.4 108.5c-.3-.1-.6-.1-1-.2 0-.1.1-.4.1-.3 1.2.1 1 .1.9.5zM47.7-.5c.2-.4.3-.7.5-1.1l.3.1c-.2 1.4-.1 1.2-.8 1zM-1.2 37.8c-.1-1.2-.2-1 .4-1 .1 1.1.2.9-.4 1zM-13.3 65c-.7.4-.5.5-1.1-.2.6-.4.3-.5 1.1.2zm14-25.7c.3.8.5.5-.5 1.1-.2-.6-.3-.3.5-1.1zm23.9 3.8c-1.2-.3-1-.2-.9-.6 1.3.3 1.1.1.9.6zM5.7 79.3c-.8-.2-.6 0-.8-.7.8-.2.5-.3 1.2.3-.1.2-.3.3-.4.4zM40.1 3.5c.3 1 .3.7-.3 1-.4-.9-.4-.6.3-1zM4.4 79.6c0 .3.1.6.1.8 0 .1-.4.2-.5.1-.1-.2-.2-.4-.2-.7-.1-.1.2-.1.6-.2zm28.4-60.4c-.7 0-.6.2-.8-.7.9-.2.7-.3.8.7zm-52.1 105.2c.4.5.6.2-.3 1.1-.5-.5-.5-.2.3-1.1zm191.8-26.3c-1.2 1.3-.9 1.2-1.3.8 1.1-1.4.8-1.3 1.3-.8zm4.9-14.7c.3-.2.7-.4 1.1-.6.1 1.3-.7.5-1.1.6zm-182 7.3c.2 1.1.4.8-.5 1.2-.4-1-.4-.7.5-1.2zm281.1-24.3c-1.3.1-1 .1-1.1-.3 1.2-.2 1-.3 1.1.3zM6.4 51.3c-.5-.4-.5-.2.2-1.1.4.3.4.1-.2 1.1zm177 14.1s.2-.2.3-.2c.3.2.6.5.9.7-.6.5-.4.6-1.2-.5zM1.2 59.7c-.3-.2-1-.4-.5-1.1.1-.1.7-.3.7.6 0 .2-.3.5-.2.5zM186 182.8c-1.7-.5-1.5-.3-1.4-.8 1.8.4 1.6.2 1.4.8zm57.9 26.6-.9.3s-.2-.3-.1-.3c1-.6.8-.5 1 0zm12.2-29.8c0-.7-.2-.6.9-.5.1.7.2.5-.9.5zM92.8 255.2c0 .5.1 1 .1 1.6-.6-.7-.6-.7-.1-1.6zm120.3-133.7c-1.2.6-.9.6-1.2.1 1.1-.8.9-.8 1.2-.1zm38.8 62.7c-.3-.2-.5-.5-.8-.7.8-.1.8-.1.8.7zm-122.3-8.1c0 1.2.2.9-.6 1.3-.2-1-.3-.6.6-1.3zM5 38.4c1.2-1 .9-.9 1.3-.4-1 1.1-.7 1-1.3.4zm94.9 197.9c-.7.7-.5.6-.8.4.6-.8.4-.7.8-.4zm125.2-103.1c1.1-.1.9-.1 1 .3-1.2.3-1 .3-1-.3zm9.1 79.7c.1 1 .3.7-.6 1.1-.2-.8-.3-.5.6-1.1zm33-87.7c.2 1.1.4.8-.4 1.3-.4-.8-.5-.5.4-1.3zm-80.1 101.5c-.4.1-.6.2-.9.2-.1-.2-.2-.5-.1-.7 0-.1.4-.2.5-.2.1.1.3.3.5.7zm-6.6-16.1c-.2-.8-.2-.6.3-.8.3.7.3.5-.3.8zm105-24.4.7-2.1c.8 2-.8 1.9-.7 2.1zm-40.8-77.8c1.2-.3.8-.4 1.2.4-.6.2-.2.3-1.2-.4zm-34.5 114.2c-.2 1 .1.8-.8.9-.1-.8-.4-.6.8-.9zm21.4-50.7c-.2.2-.4.4-.5.6-.1-.1-.3-.2-.3-.3.5-.7.5-.6.8-.3zm-18.5 38.9c.2.7.4.5-.5.8-.1-.7-.2-.5.5-.8zm-5.5-95.3c-.7.2-.5.4-.9-.4.8-.2.5-.2.9.4zM129.7 170c.1-1.3-.1-1.1.4-1.1-.1 1.3.1 1.1-.4 1.1zm33.9-91c.1-1.4 0-1.2.5-1.2 0 1.5.1 1.3-.5 1.2zm-41.8 89.9c0 .3.1.6 0 .8 0 .1-.5.1-.5.1-.1-.2-.1-.5-.2-.7.2-.1.4-.2.7-.2zm79.1-46.8c-.4 0-.7-.1-1.1-.1v-.4c1.4-.1 1.2-.1 1.1.5zm-56.4-12.2c.1-1.1-.1-.9.6-.9-.2 1.2 0 1-.6.9zM160.8 74c-.3 1.4-.1 1.2-.6 1.1.1-1.5-.1-1.3.6-1.1zm44.3 37.2c-1.2-.1-1.1 0-.9-.6 1.1.4 1 .2.9.6zm-55.2-19.6c.8-.1.6-.3 1 .5-.6.2-.4.3-1-.5zM83.7 234.9c-.7 1.2-.5 1.1-.9.8.7-1.2.5-1 .9-.8zm1.8-6.6c-.6 1.1-.4 1-.9.8.5-1.2.2-1.1.9-.8zM196.6-11.5c-.9.2-.6.4-1-.5.5-.1.2-.2 1 .5zm-55.7 115.9c1.5.7 1.3.5 1.1.9-1.4-.7-1.2-.5-1.1-.9zm53.7-116.5c.2-1.4 0-1.2.6-1.1-.3 1.4-.1 1.2-.6 1.1zm-61.5 129.5c.4-.1.7-.3.8-.2.2.1.3.4.2.6 0 .1-.4.3-.5.3-.2-.1-.2-.4-.5-.7zm10.2-22.6c-.5 1.3-.3 1.1-.8 1 .4-1.4.2-1.2.8-1zm14.2 108.9c-1 1.7-.7 1.6-1-.1 1.2.1 1 .1 1 .1zm-53-29.9c1-1.5.7-1.3 1.3-.8-1.2 1.2-.9 1.1-1.3.8zm-26.2 58.8c-.2.7-.3 1.5-1.8.8 2-.9 1.8-.8 1.8-.8zm40.6-90.9c.1.4.3.8.1 1-.2.4-.7 0-.6-.5 0-.2.1-.3.2-.5h.3zm169.6 48.8c-.6-.3-.9-.5-1.4-.7 1.4-.8 1.1-.8 1.4.7zm-185.3-16.9c.5 1.2.5.9-.1 1.2-.4-1.2-.5-.9.1-1.2zm29.8-67.2c.7.1 1.1.2 1.7.3-.8.4-.8.4-1.7-.3zm44.9-96.7c.3-1.3.2-1.2.7-1-.5 1.3-.4 1.1-.7 1zm23.7 93.1c-.7.7-1.2.5-1.6-.5 1.3-.4 1.7.9 1.6.5zm-47 97.9c-.1 0 .2 0-.7-.2.3-.5.1-.6.7.2zm128.1-17c.7.3.6.8 0 1.4-.5-1.4-.5-1.1 0-1.4zm-190.3-5.4c-.5 1.3-.3 1.1-.8 1 0-1.1-.1-.7.6-1.2 0 .1.1.2.2.2zM282 204.8c.2 1.1.4.9-.5 1.2-.2-.6-.4-.3.5-1.2zm-205.9-4.2c-.8-.6-.7-.4-.4-1 .8.7.8.5.4 1zm18.2-76.5c-.3.1-.7.2-1 .2l-.1-.3c.3-.3.5-.5.8-.7.2.2.3.5.3.8zm-41.5 82.3c.2-.9.6-1.2 1.6-.6-.7.3-1.1.4-1.6.6zm213.2-6c1.2-.7 1.3.4.9.6-.9.5-.9-1-.9-.6zM231.7 20.1c-.8.8-.6.7-.9.4.8-.8.6-.8.9-.4zM101.6 62.9c.4 1.1.4.9-.1 1.1-.5-1.2-.5-.9.1-1.1zm-61 122.9c.3-.2.6-.4.8-.5 0 0 .2.2.2.3-.8.8-.7.6-1 .2zm-9.5 3.8c-.5 1.2-.3 1-.8.8.4-1.2.2-1.1.8-.8zm4.4-21.1c-.3.3-.5.6-1.1 1.2 0-1.2.4-1.3 1.1-1.2-.1-.1 0 0 0 0zm110 26.9c.5-1 .3-.8.7-.7-.3 1-.1.9-.7.7zm-99.9-54c.5-1.3.3-1.1.8-1-.2 1.4 0 1.2-.8 1zm185-126.5c0-.7-.1-1 0-1.2 0-.1.5-.1.5-.1.3.7-.2.9-.5 1.3zm-178.4 81c.3 1.1.4.8-.3 1.3-.4-.9-.4-.5.3-1.3zM13.7 167c-.6-.3-1-.6-.8-1.5 1.6-.1.4 1.7.8 1.5zm99.5 84.7c.3-.3.6-.6.8-.9.3.8.3.8-.8.9zM52.3 25.8c-.2 1.3 0 1.1-.6 1.1-.1-1.3-.2-1.1.6-1.1zm139.5 55c.4-.1.7-.1.9-.2 0 .2.1.5 0 .7 0 .1-.4.2-.5.2-.1-.1-.2-.4-.4-.7zM-10.4 17.4c1.1.7 1 .5.7.9-1.1-.6-1-.4-.7-.9zm18.8-13c-.1 1 .1.8-.7.9.1-.9-.1-.6.7-.9zm.3 15.9c.6.1.5-.2.5.9-.6-.1-.5.1-.5-.9zM2.3 35.8c.6 0 .9-.1 1.4-.1-.5.5-.5.5-1.4.1zm-21.1 49.5c.3.5.4.3-.4.9-.3-.5-.4-.3.4-.9zm203 102.3c0-.7-.1-.4.3-1.1.6 1.2.1 1.1-.3 1.1zM291.3 115c-.9-.7-.9-.5-.5-.9.9.8.8.6.5.9zm-29.2 61.4c0 .3.1.5.1.8-.5.1-.8.3-.7-.7 0 0 .4 0 .6-.1zm38.7 9.3c.2-.7.3-1.1.4-1.5.5.7.5.7-.4 1.5zm-31.4-33.1c.2.1.5.3.7.4l-.1.3c-1-.3-.8-.2-.6-.7zm-29.7 59.6c.3-.1.5-.1.7-.2.1.2.2.5.1.7 0 .1-.4.2-.5.2-.1-.2-.2-.4-.3-.7zm-75.5 6c1.1-.4.9-.4 1.1 0-1.1.4-.9.5-1.1 0zM47 141.7c.3-.1.4-.2.6-.3.1.2.2.4.2.6 0 0-.2.2-.3.2l-.5-.5zm-21.1 46.2c-.2.4-.3.6-.5.8 0 0-.4-.1-.4-.2s.1-.4.2-.5c.1-.1.3 0 .7-.1zM244.7 67.7c0 .9.1.6-.6 1-.2-.6-.4-.4.6-1zm-85.3 136.9c-.2.6-.5 1.1-1.4.2 1.6-.2 1.4-.2 1.4-.2zM238.5-4c.2.8.2.5-.3.8-.1-.8-.1-.6.3-.8zM123.7 122.3c-.5 1.1-.4 1-.7.8.6-1.1.4-1 .7-.8zM257.4-5.6c.4 0 .3-.2.5.5-.5 0-.4.1-.5-.5zM112.2 178c-1.2.3-.9.3-1.1-.1 1.2-.5.9-.5 1.1.1zm47.2-14c.2.7.2.5-.2.7-.3-.6-.3-.4.2-.7zm-13.1 26.6c.9.4.7.8 0 1.5-.2-1.7-.2-1.4 0-1.5zm-133.4-3.4h-1c0-.1 0-.4.1-.4 1.1-.1.9 0 .9.4zm140.3-97.6c.2.9.4.6-.5 1-.2-.5-.4-.3.5-1zm7.1-9.5c.1.7.2.5-.2.7-.3-.6-.3-.4.2-.7zM92.4 226.5c-.7-1-.1-1.3.1-1.7.6.3.6-.1-.1 1.7zm53.2-114.7c1.1.3 1 .1.9.6-1.2-.1-1 0-.9-.6zm10.9-20.2c-1.3.2-1 .4-1.4-.6.9-.2.5-.4 1.4.6zM17.2 168.3c-.2.1-.4.3-.5.3-.1-.1-.3-.3-.2-.5 0-.1.3-.2.4-.3 0 .2.1.3.3.5zm24 106.3c0 1.1.1.8-.6.9-.1-.9-.2-.7.6-.9zm-5.6 4.4c-.4-.2-.4.1-.1-1.1.6.3.6 0 .1 1.1zM164.8 72.8c.6-1.1 1.1-1.1 1.6-.9.2.4.4.2-1.6.9zm40.9 12.9c-.2.9.1.7-.9.8 0-.7-.2-.5.9-.8zM23.4 114.2c0 .8.2.6-.7.7.2-.8 0-.6.7-.7zm75.8 101.2c-.3 1.2-.2 1-.7.9.4-1.2.2-1 .7-.9zM-8.9 169.2c-1.4 1-1.1 1.2-.7-.9.8 1.1.7 1 .7.9zm100.4 64.6c1 .6 1 .4.3 1-.3-1.1-.2-1-.3-1zM245.8 59.5c-.6 1-.4.9-.9.5.7-.8.5-.7.9-.5zm-41.4-1.4c.3.4.3.3-.2.6-.3-.3-.3-.2.2-.6zM96 239.4c.4.4.4.2-.1.7-.2-.3-.3-.1.1-.7zM32.3 66.1h-.9c-.1 0-.2-.4-.1-.5.1-.2.4-.2.6-.3.1.1.2.4.4.8zm105.3 29.4c.1.3.2.5.2.7 0 .1-.4.2-.4.2l-.3-.6c.1-.1.3-.2.5-.3zm46.2 3.9c1.4 0 1.1-.1 1.2.5-.9.2-.6.3-1.2-.5zm-85.9 85.4c-.3.2-.4.3-.6.4-.1-.2-.3-.4-.3-.6 0-.1.3-.4.4-.3l.5.5zm9.1-61.7c-.3.1-.5.2-.6.3-.1-.2-.2-.5-.2-.7 0-.1.4-.3.4-.2.1.1.3.3.4.6zm20.8 51.6c-1.2-.6-1.1-.2-1.1-1.2.5-.1.3-.3 1.1 1.2zM88.5 259c-1.2.1-1 .2-1-.3 1.2-.1 1-.2 1 .3zm63-48.5c.1-.4.3-.7.5-1.4.6 1.2-.2 1.1-.5 1.4zm-166.2-50.4c-.7.2-.5.4-.8-.4.7-.2.5-.3.8.4zm166.1-5.4c.3-.2.5-.4.6-.3.1.1.3.4.3.4-.6.7-.7.1-.9-.1zm29.4 14.2c-.4-.7-.3-.5 0-.9.4.2.4 0 0 .9zm-37.7-79.5c-.2-.9-.2-.7.1-1 .6.8.7.6-.1 1zm35.6-75c.3-.2.5-.4.8-.5 0 0 .3.2.2.2-.7.9-.6.8-1 .3zm-1.9 85.8c-.8 1.1-.6 1-.9.8.7-1.2.5-1 .9-.8zM143 168.7c1.1-.2.8-.3 1.1.2-.9.4-.6.4-1.1-.2zm3.3-152.5c1-.7.8-.7 1.1-.3-1.1.8-.8.7-1.1.3zM-17.2 140.9c.5-1.1.3-.9.8-.8-.4 1.2-.2 1-.8.8zm221.4-19.8c-.3.7 0 .6-.8.6.2-.7 0-.5.8-.6zm-99.6 129c.1-1.3 0-.9.6-1.2.3 1.1.4.9-.6 1.2zm63.3-50.7c0 .8.1.6-.4 1-.4-.7-.4-.5.4-1zM244.1-.1c-.3.2-.6.4-.6.3-.2-.2-.3-.4-.4-.6 0 0 .3-.3.4-.3l.6.6zM79.6 230c-.2.6-.4 1-1.2.6.1-1.5 1.3-.4 1.2-.6zm36.3-94.2c0 .3.1.5 0 .7 0 .1-.5.2-.5.1-.1-.2-.2-.4-.2-.7.2 0 .3 0 .7-.1zm187.3 27.4c0-.3 0-.6.1-.8h.4c.1 1 .1.9-.5.8zm-147 18.9c0-.5-.2-.9.5-.7.1 0 .1.2.2.3-.2 0-.3.1-.7.4zM54.5 208.4c-.2.2-.4.5-.6.7-.1-.1-.3-.2-.3-.2.6-.9.5-.7.9-.5zm29.6-66.2c0 .5.2.8-.5.7 0 0-.1-.3 0-.4 0-.1.2-.1.5-.3zm-27.6 56.5c.8-.8.6-.7 1-.5-.7 1-.5 1-1 .5zM12.8 62.3c-1.1.1-.8.2-1.1-.4 1-.3.7-.3 1.1.4zm215.3 129.3c.8-.1.6-.2.8.4-.7.2-.4.2-.8-.4zm68.5-21.6c1 .4.8.2.7.6-1-.3-.8-.2-.7-.6zM70 249.8c.6-.4.4-.4.8.3-.6.3-.4.3-.8-.3zm32.8-160.7c.6-.1.8-.4.9.5 0 0-.4.2-.5.2-.1-.2-.2-.4-.4-.7zm137.8 28.6c.2-.2.4-.5.7-.7.1.1.3.2.2.3-.7.8-.6.7-.9.4zm-65.9-116c.6.1.5-.2.4 1-.6 0-.5.2-.4-1zm11.6-26c.9-.6.7-.6 1-.3-.8.8-.6.7-1 .3zm-57.5 148.5c1.1-.1.8-.2 1 .5-1 .2-.7.3-1-.5zm19.6 73.4c-.1.4-.2.7-.4 1.2-.3-.8-.3-.8.4-1.2.1 0 0 0 0 0zM47.8 189c.3-.1.7-.1 1-.2l.1.3c-1.1.6-1 .5-1.1-.1z"/>
      <path d="M1.1 59.7c.3.3.6.6 1 .9l-.6.6c-.1-.3-.4-.5-.4-.8-.1-.3.2-.8 0-.7zm264.5 70.7c0 .8.1.6-.5.6 0-.7-.1-.6.5-.6zm-109.4 49.2c-.2 1.1 0 .9-.6.9-.1-.7-.2-.4.6-.9zm42.6-92.3c.3.8.5.5-.2 1.1-.3-.5-.4-.3.2-1.1zm57.5-16.2c.2-1.9 0-1.6.6-1.6-.4 1.8-.3 1.6-.6 1.6zm-27.7 143c.6-.2.5-.3.8.4-.7.3-.6.4-.8-.4zM186 116.9c-.6.4-.8.5-1.2.7-.2-.9 0-1.1 1.2-.7zm-84.4 120.3c-.6.8-.5.7-.8.5.6-.9.4-.8.8-.5zm1.7-86c1.2.4 1 .2.9.7-1.2-.4-1.1-.2-.9-.7zm79.8-141.1c1.2.4 1.3.1-.2 1.1-.3-.2-.3.1.2-1.1.1 0 0 0 0 0zM168.3 167c.4-.9.3-.8.7-.7-.3 1-.2.9-.7.7zm47.6-118.5c.5.9.5.7.2.9-.7-.8-.6-.6-.2-.9zM7.1 33.6c.2.2.5.4.7.6-.1.1-.2.2-.3.2-.8-.6-.6-.5-.4-.8zm168.7-35c.7-.2.5-.3.8.3-.6.2-.4.2-.8-.3z"/>
    </g>
  </mask>
  <g transform="translate(0 8)">
    <g style="mask:url(#bsi-logo-mask)">
      <path id="stamp" fill="#e30d16" d="M25.8 106.4c2.4-38.8 28.3-74 67.7-86.2C132.9 8 174.1 22.4 198 53.1l14.6-4.5c-1.5-7.4-7.4-13.4-15.2-14.7-6.4-1.1-11.8-5.5-14.2-11.5-3.4-8.6-12.6-13.4-21.6-11.4-6.4 1.4-13-.5-17.6-5.2-6.4-6.6-16.7-7.6-24.3-2.2-5.3 3.8-12.2 4.5-18.2 1.9-8.5-3.6-18.3-.6-23.3 7.2-3.5 5.5-9.6 8.8-16.1 8.7-9.2-.1-17.2 6.5-18.7 15.6-1.1 6.4-5.5 11.8-11.5 14.2-8.6 3.4-13.4 12.6-11.4 21.6 1.4 6.4-.5 13-5.2 17.6-5.6 5.3-7.1 13.6-4.1 20.6l14.6-4.6zm70.9-75.9c33.5-10.4 68.7 1 90.3 26l5.1-1.6c-22.7-27.6-60.7-40.3-96.8-29.1C59 37 34.9 69 31.8 104.6l5.1-1.6c3.6-32.9 26.2-62.1 59.8-72.5zm134.2 79.6c0-.1-.1-.1-.1-.2l-12.4 3.8c-.6 40.6-27 77.9-67.8 90.6-40.9 12.7-83.8-3.2-107.3-36.3L31 171.8v.3c-.1 9.2 6.5 17.2 15.6 18.7 6.4 1.1 11.8 5.5 14.2 11.5 3.4 8.6 12.6 13.4 21.6 11.4 6.4-1.4 13 .5 17.6 5.2 6.4 6.6 16.7 7.6 24.3 2.2 5.3-3.8 12.2-4.5 18.2-1.9 8.5 3.6 18.3.6 23.3-7.2 3.5-5.5 9.6-8.8 16.1-8.7 9.2.1 17.2-6.5 18.7-15.6 1.1-6.4 5.5-11.8 11.5-14.2 8.6-3.4 13.4-12.6 11.4-21.6-1.4-6.4.5-13 5.2-17.6 6.6-6.3 7.5-16.6 2.2-24.2zm-82.1 88.7c37.7-11.7 62.3-45.9 63.7-83.2l-5 1.5c-2 34.7-25.1 66.1-60.2 77-35.1 10.9-71.9-2-93.2-29.5l-5 1.5c22.4 30.1 62 44.4 99.7 32.7z"/>
      <path id="branded" d="m0 121.4 11.5-3.6c8.3-2.6 13.4-.2 15.7 7.3l.6 1.9c2.1 6.6.3 9.4-1.8 11 2.5.2 6.4 1 8.5 7.8l1.2 3.9c2.7 8.5.4 13.8-8.5 16.6l-12.1 3.8L0 121.4zm16.6 15.8c3.2-1 3.9-2.3 2.8-6.1l-.8-2.5c-1-3.1-2.4-4.2-5.4-3.3l-1.8.5 3.7 11.8 1.5-.4zm5.4 22.7 1.9-.6c3.3-1 3.7-2.8 2.5-6.4l-1.4-4.5c-1.2-3.8-2.6-5.1-6.4-3.9l-1.3.4 4.7 15zm30.1-24.6 6.6 21.2-9.4 2.9-15.2-48.7 12.2-3.8c8.2-2.5 13.3-.2 16 8.3l.5 1.8c2.2 6.9 0 9.9-1.7 11.5 3.5.5 5.6 2.3 7.7 9.1 1.5 4.7 3.6 11.8 4.8 14.3l-9.1 2.8c-1.3-2-3.2-8.4-5.2-14.6-1.7-5.5-2.6-6.2-6.2-5.1l-1 .3zm-2.3-7.4 1.2-.4c3.1-1 4.1-2.4 2.7-6.9l-.7-2.4c-1-3.3-2.2-4.7-5.6-3.6l-1.5.5 3.9 12.8zm39 6.5 2.4 12-9.6 3-8.3-50.9 14-4.4 22.3 46.5-9.7 3-5-11.2-6.1 2zm2.7-9.9c-2.6-6-6.6-15.2-8.5-19.7l-.4.1c.9 3.4 3.2 14.8 4.4 21l4.5-1.4zM118 138l-15.2-48.7 10.4-3.2c3.4 5.5 15.2 26 16.2 28l.2-.1c-2.5-6.3-5.6-15.1-7.8-21.9l-2.5-8 8.7-2.7 15.2 48.7-10.5 3.3c-2.5-4.3-15.6-27.9-16.4-29.3l-.3.1c2.2 5.6 5.5 15.2 7.9 22.9l2.6 8.3-8.5 2.6zm21-60 11.5-3.6c10-3.1 14.9.4 18.1 10.4l5.7 18.3c2.6 8.4 3.1 16.3-7.9 19.8l-12.2 3.8L139 78zm22.3 38.2 1.8-.6c3.7-1.1 3.5-3.7 2.3-7.5l-6.8-21.8c-1.1-3.6-2.5-5.3-6.1-4.2l-1.8.5 10.6 33.6zm40.8-28.1-10 3.1 4.1 13.3 11.8-3.7 1.4 8.6-20 6.3L174.2 67l20-6.2 2.6 8.3-10.6 3.3 3.3 10.7 10-3.1 2.6 8.1zm1.7-30.3 11.5-3.6c10-3.1 14.9.4 18.1 10.4l5.7 18.3c2.6 8.4 3.1 16.3-7.9 19.8l-12.2 3.8-15.2-48.7zM226 96l1.8-.6c3.7-1.1 3.5-3.7 2.3-7.5l-6.8-21.8c-1.1-3.6-2.5-5.3-6.1-4.2l-1.8.5L226 96z"/>
      <path id="stars" fill="#e30d16" d="m106.9 64.5 3.6 4 5.3-.9-2.6 4.7 2.5 4.8-5.3-1.1-3.7 3.9-.7-5.4-4.8-2.4 4.9-2.2zm16.1-1.3 2.6 2.8 3.7-.6-1.8 3.3 1.7 3.4-3.7-.7-2.7 2.7-.4-3.8-3.5-1.7 3.5-1.6zm-30.1 9.4 2.6 2.8 3.7-.7-1.8 3.4 1.7 3.3-3.7-.7-2.7 2.7-.4-3.8-3.5-1.7 3.5-1.6zm42.7 84.6-3.7-4-5.3 1 2.6-4.7-2.5-4.8 5.3 1 3.8-3.8.6 5.3 4.9 2.4-4.9 2.3zm-16.1 1.3-2.6-2.8-3.8.6 1.9-3.3-1.8-3.4 3.8.8 2.6-2.8.5 3.8 3.4 1.7-3.5 1.6zm30.1-9.3-2.6-2.8-3.8.6 1.9-3.3-1.8-3.4 3.8.7 2.6-2.7.5 3.8 3.4 1.7-3.5 1.6z"/>
    </g>
    <path id="social" d="m77.9 64.4.8.9c.8.9 1.3 1.1 1.9.6.6-.5.2-1.2-.4-1.9-1.1-1.3-1.7-1.4-4-1.3-2.6.1-4 0-5.8-2-1.7-1.9-2.6-4.2-.1-6.4 2.7-2.4 4.7-.9 6 .6l.7.8-2.4 2.1-.6-.8c-.7-.8-1.2-1.1-1.7-.6-.5.4-.3 1 .4 1.7.7.8 1.2 1.1 3 1 3.3-.2 4.8.1 6.7 2.2 1.8 2.1 2.6 4.4 0 6.7-2.5 2.2-4.6 1.3-6.3-.6l-.7-.8 2.5-2.2zm11-16.8 4.2 7.1c1.8 3 1.1 5.2-1.5 6.7-2.5 1.5-4.6.9-6.4-2L81 52.2c-1.7-2.9-.9-5.2 1.5-6.6 2.3-1.3 4.6-1 6.4 2zm-5.2 2.6 4.6 7.8c.6.9 1.2 1.2 1.8.9.7-.4.7-1 .1-2L85.7 49c-.6-1-1.1-1.3-1.8-.9-.7.5-.8 1.1-.2 2.1zm20.5-.8.3.9c.7 2.1 1.3 4.9-2.5 6.3-2.8 1-4.6-.1-5.7-3.2l-2.9-8.2c-1-2.9-.1-4.9 2.6-5.9 3.5-1.2 4.9.9 5.7 3.1l.4 1-3.2 1.1-.5-1.4c-.3-.9-.7-1.3-1.4-1.1-.7.2-.7.7-.4 1.7l3.1 8.8c.3.9.7 1.4 1.4 1.2.7-.2.7-.8.3-1.9l-.5-1.4 3.3-1zm4.6-13 3.2 17.4-3.3.6-3.2-17.4 3.3-.6zm9.4 12.5-.3 4.2-3.5.1 2-17.8 5.1-.2 3.1 17.6-3.6.2-.6-4.2-2.2.1zm1.9-3.1c-.3-2.3-.8-5.7-1-7.4h-.1c0 1.2-.3 5.2-.5 7.4h1.6zm9.4-10.1 3.4.5-2.2 14.5 4.2.6-.7 2.9-7.3-1.1 2.6-17.4z"/>
    <path id="images" d="m112.6 170.4-3.4 17.4-3.3-.6 3.4-17.4 3.3.6zm11.9 12.8c0-2.7.1-6.6.2-8.8h-.1c-.4 3.5-1.3 10.7-1.9 14.4h-2.9c-.3-3.9-1-11.2-1.3-14.5h-.1v9l-.1 5.5h-3.1l.3-17.7 4.9.1c.4 3.4.9 7.8 1 10.2h.1c.3-2.6 1-6.3 1.6-10.1l4.9.1-.3 17.7-3.3-.1.1-5.8zm11.9-.1.5 4.2-3.4.8-1.5-17.8 4.9-1.1 6.4 16.7-3.5.8-1.4-4-2 .4zm1.2-3.4c-.7-2.2-1.9-5.4-2.4-7h-.1c.2 1.2.7 5.2.9 7.4l1.6-.4zm19 .6-2.3 1.1c-.2-.2-.5-.8-.7-1.1 0 1.4-.9 2.1-1.9 2.6-2.5 1.1-4.1-.4-5.2-3l-3.4-7.6c-1.1-2.5-1-5 2.1-6.4 3.7-1.7 5.3.9 6 2.5l.3.7-3.1 1.4-.4-.9c-.4-.8-.8-1.5-1.6-1.1-.7.3-.7 1-.3 2l3.7 8.3c.5 1.1 1 1.3 1.6 1.1.8-.3.7-1 .1-2.4l-1-2.3-1.1.5-1.2-2.6 4.2-1.9 4.2 9.1zm6.5-13.5-3 2.1 2.8 3.9 3.5-2.5 1.4 2.7-5.9 4.2-10.2-14.5 5.9-4.2 1.7 2.5-3.1 2.2 2.2 3.2 3-2.1 1.7 2.5zm7.3-3.4.9.9c.8.8 1.4 1 2 .4.5-.6.1-1.3-.5-1.8-1.2-1.2-1.8-1.3-4.1-1.1-2.6.2-4 .3-5.9-1.6-1.8-1.8-2.9-4-.5-6.4 2.5-2.5 4.6-1.2 6 .2l.7.7-2.2 2.3-.8-.7c-.8-.8-1.3-1-1.7-.5-.4.4-.2 1 .5 1.7.8.7 1.3 1 3.1.7 3.3-.4 4.8-.3 6.8 1.8 2 1.9 2.9 4.2.5 6.7-2.4 2.4-4.5 1.7-6.4-.2l-.8-.7 2.4-2.4z"/>
  </g>
</svg>
