<svg xmlns="http://www.w3.org/2000/svg" viewBox="-10 -10 70 70" class="cls-logo__mark" width="100" height="100">
    <defs>
        <linearGradient id="logo_grad" x1="1" x2="0" y1=".5" y2=".5" gradientUnits="objectBoundingBox">
            <stop offset="0" stop-color="#00ffba"></stop>
            <stop offset="1" stop-color="#0365dd"></stop>
        </linearGradient>
    </defs>
    <path class="path" fill="url(#logo_grad)" transform="translate(-5,5)" d="M52 0a20.948 20.948 0 00-8 1.575 20.607 20.607 0 00-6.538 4.295 20.058 20.058 0 00-4.407 6.37 19.549 19.549 0 00-1.615 7.8 10.328 10.328 0 01-.855 4.047 10.64 10.64 0 01-2.336 3.375 10.955 10.955 0 01-3.461 2.276 11.15 11.15 0 01-8.468 0 10.955 10.955 0 01-3.461-2.276 10.646 10.646 0 01-2.335-3.375 10.183 10.183 0 010-8.174 10.644 10.644 0 012.335-3.374 10.94 10.94 0 013.461-2.277 11.145 11.145 0 018.468 0l3.772-8.687a21.114 21.114 0 00-16 0A20.615 20.615 0 006.021 5.87a20.056 20.056 0 00-4.406 6.37A19.552 19.552 0 000 19.96v.08a19.548 19.548 0 001.613 7.72 20.064 20.064 0 004.406 6.37 20.625 20.625 0 006.534 4.294 20.948 20.948 0 008 1.575 20.948 20.948 0 008-1.575 20.632 20.632 0 006.534-4.294 20.062 20.062 0 004.413-6.37 19.539 19.539 0 001.615-7.8 10.337 10.337 0 01.855-4.047 10.638 10.638 0 012.33-3.374 10.935 10.935 0 013.461-2.277 11.144 11.144 0 018.468 0L60 1.575A20.948 20.948 0 0052 0z"></path>
</svg>