<svg xmlns="http://www.w3.org/2000/svg" xml:space="preserve" viewBox="52 48 410 82">
	<g fill="#fff" class="logo">
		<path d="M113.6 84.4c-1.1 1.2-2 2.5-2.6 4.1a13 13 0 0 0-.6 4.8l-.1-.1a12 12 0 0 1-.8 5.6 15 15 0 0 1-3 4.8 13.4 13.4 0 0 1-10.4 3.8l.1.1c-2.3-.2-4.6.3-6.5 1.4-2 1.1-3.6 2.9-4.5 4.9s-1.3 4.4-.9 6.6a11.3 11.3 0 0 0 9 9 11.3 11.3 0 0 0 11.5-5.4c1.1-2 1.6-4.3 1.4-6.5l.1.1a12 12 0 0 1 .8-5.6 15 15 0 0 1 3-4.8 13.4 13.4 0 0 1 10.4-3.8l-.1-.1a10 10 0 0 0 5.4-.9c1.7-.7 3.2-1.9 4.3-3.4 1.1-1.5 1.9-3.2 2.2-5.1.3-1.8.1-3.7-.5-5.5-.6-1.8-1.7-3.3-3.1-4.5-1.4-1.2-3.1-2.1-4.9-2.5s-3.7-.3-5.5.2a9.9 9.9 0 0 0-4.7 2.8zM91.3 100.3c1.6.1 3.2-.1 4.7-.6s2.9-1.4 4.1-2.6c1.1-1.1 2-2.5 2.6-4.1.5-1.5.7-3.2.6-4.8l.1.1a12 12 0 0 1 .8-5.6 15 15 0 0 1 3-4.8 13.4 13.4 0 0 1 10.4-3.8l-.1-.1c2.3.2 4.6-.3 6.5-1.4 2-1.1 3.6-2.9 4.5-4.9a10.8 10.8 0 0 0-2.2-12.5 11.3 11.3 0 0 0-5.9-3.1 11.3 11.3 0 0 0-11.5 5.4c-1.1 2-1.6 4.3-1.4 6.5l-.1-.1a12 12 0 0 1-.8 5.6 15 15 0 0 1-3 4.8 13.4 13.4 0 0 1-10.4 3.8l.1.1a10 10 0 0 0-4.8.6c-1.5.5-2.9 1.4-4.1 2.6-1.1 1.1-2 2.5-2.6 4.1a13 13 0 0 0-.6 4.8l-.1-.1a12 12 0 0 1-.8 5.6 12.6 12.6 0 0 1-7.8 7.8c-1.8.7-3.7.9-5.6.8l.1.1c-2.3-.2-4.6.3-6.5 1.4-2 1.1-3.6 2.9-4.5 4.9a10.8 10.8 0 0 0 2.2 12.5c1.6 1.6 3.7 2.7 5.9 3.1a11.3 11.3 0 0 0 11.5-5.4c1.1-2 1.6-4.3 1.4-6.5l.1.1a12 12 0 0 1 .8-5.6 15 15 0 0 1 3-4.8c1.4-1.3 3-2.4 4.8-3 1.8-.8 3.7-1.1 5.6-.9z"/>
		<path d="M71.1 94.2c1.1-1.2 2-2.5 2.6-4.1s.7-3.2.6-4.8l.1.1c-.2-1.9.1-3.8.8-5.6s1.7-3.4 3-4.8c1.4-1.4 3-2.4 4.8-3 1.8-.7 3.7-.9 5.6-.7l-.1-.1c2.3.2 4.6-.3 6.5-1.4 2-1.1 3.6-2.9 4.5-4.9a10.8 10.8 0 0 0-2.2-12.5 11.3 11.3 0 0 0-5.9-3.1 11.3 11.3 0 0 0-11.5 5.4c-1.1 2-1.6 4.3-1.4 6.5l-.1-.1c.2 1.9-.1 3.8-.8 5.6s-1.7 3.4-3 4.8a13.4 13.4 0 0 1-10.4 3.8l.1.1a10 10 0 0 0-5.4.9c-1.7.7-3.2 1.9-4.3 3.4a11.7 11.7 0 0 0-2.2 5.1c-.3 1.8-.1 3.7.5 5.5.6 1.8 1.7 3.3 3.1 4.5 1.4 1.2 3.1 2.1 4.9 2.5 1.8.4 3.7.3 5.5-.2 1.7-.6 3.3-1.6 4.7-2.9zM164.6 64.1h9v43.7h-9V64.1zM178.7 92.8a15.8 15.8 0 0 1 27-11.3c2.2 2.2 3.7 5 4.4 8.1a16 16 0 0 1-6.7 16.3 16.3 16.3 0 0 1-14.9 1.5 15.7 15.7 0 0 1-9.8-14.6zm22.7 0c0-1.4-.5-2.7-1.3-3.8a6.8 6.8 0 0 0-7.1-2.7 8 8 0 0 0-3.5 1.9 7 7 0 0 0-1.4 7.4 7.5 7.5 0 0 0 2.5 3.1 7.3 7.3 0 0 0 6.5.6c.9-.3 1.6-.9 2.3-1.5.6-.7 1.1-1.5 1.5-2.3.4-.9.5-1.8.5-2.7zM246.1 77.8v28.4c0 10-7.8 14.3-15.8 14.3-2.8.2-5.6-.4-8.1-1.6a15.7 15.7 0 0 1-6.1-5.6l7.7-4.4a6.5 6.5 0 0 0 2.8 2.9c1.2.7 2.6 1 4 .8.9.1 1.8 0 2.6-.2.9-.3 1.6-.7 2.3-1.3.6-.6 1.2-1.4 1.5-2.2.3-.8.4-1.7.4-2.6v-2.7a11.4 11.4 0 0 1-3.9 3 10 10 0 0 1-4.8.9A15.1 15.1 0 0 1 214 92.3a15.2 15.2 0 0 1 14.7-15.2 10.5 10.5 0 0 1 8.7 3.9v-3.1l8.7-.1zm-8.7 14.4c.1-1.4-.3-2.9-1.1-4.1a7.9 7.9 0 0 0-3.2-2.8c-1.3-.6-2.8-.8-4.2-.5s-2.7.9-3.8 1.9c-1 1-1.8 2.3-2.1 3.7a7.2 7.2 0 0 0 7.2 8.7 6.8 6.8 0 0 0 5.2-1.9c.7-.7 1.2-1.4 1.6-2.3.2-.8.4-1.8.4-2.7zM251.2 92.8a15.8 15.8 0 0 1 27-11.3c2.2 2.2 3.7 5 4.4 8.1a16 16 0 0 1-6.7 16.3 16.3 16.3 0 0 1-14.9 1.5 15.7 15.7 0 0 1-9.8-14.6zm22.7 0c0-1.4-.5-2.7-1.3-3.8a6.8 6.8 0 0 0-7.1-2.7 8 8 0 0 0-3.5 1.9 7 7 0 0 0-1.4 7.4 7.5 7.5 0 0 0 2.5 3.1 7.3 7.3 0 0 0 6.5.6c.9-.3 1.6-.9 2.3-1.5.6-.7 1.1-1.5 1.5-2.3.4-.9.6-1.8.5-2.7zM287.1 69.8c0-1.1.3-2.1.9-3 .6-.9 1.4-1.6 2.4-2 1-.4 2.1-.5 3.1-.3a5.5 5.5 0 0 1 4.3 4.3c.2 1 .1 2.1-.3 3.1s-1.1 1.8-2 2.4c-.9.6-1.9.9-3 .9a5.5 5.5 0 0 1-5.4-5.4zm.9 8h9v29.9h-9V77.8zM335.7 92.8a14.8 14.8 0 0 1-14.2 15.7 11.2 11.2 0 0 1-8.9-3.6v14.8h-9V77.8h9v2.8a11.2 11.2 0 0 1 8.9-3.6c2 .1 3.9.6 5.7 1.4s3.4 2 4.7 3.5c1.3 1.5 2.4 3.2 3 5 .6 1.9.9 3.9.8 5.9zm-9 0c0-1.4-.5-2.8-1.3-3.9s-1.9-2-3.2-2.5a7.1 7.1 0 0 0-7.7 1.7 7.2 7.2 0 0 0 1.1 10.9c1.2.8 2.5 1.2 3.9 1.2 1 0 1.9-.1 2.8-.5.9-.4 1.7-.9 2.4-1.6a6 6 0 0 0 1.5-2.4c.4-1 .6-2 .5-2.9zM363.4 98.8c0 6.9-6 9.8-12.4 9.8a13.1 13.1 0 0 1-12.8-7.1l7.8-4.4c.3 1.1 1 2 1.9 2.7.9.6 2 .9 3.2.9 2.2 0 3.2-.7 3.2-1.9 0-3.3-14.7-1.6-14.7-11.9 0-6.5 5.5-9.8 11.7-9.8a13 13 0 0 1 11.7 6.4l-7.7 4.1c-.3-.8-.9-1.5-1.6-1.9s-1.5-.7-2.4-.7c-1.6 0-2.5.6-2.5 1.7-.1 3.3 14.6 1 14.6 12.1zM396.1 77.8v29.9h-9v-2.8a11 11 0 0 1-3.8 2.9c-1.5.6-3.1.9-4.7.8-6 0-11.2-4.3-11.2-12.4V77.8h9v17a5 5 0 0 0 .2 2.1c.2.7.6 1.3 1.1 1.8.5.5 1.1.9 1.8 1.2.7.3 1.4.4 2.1.3 3.3 0 5.6-1.9 5.6-6.2V77.8h8.9zM447.6 89.4v18.4h-9V90.1c0-3-1.4-4.9-4.3-4.9-3 0-4.7 2.1-4.7 5.6v16.9h-9V90.1c0-3-1.4-4.9-4.3-4.9-3 0-4.7 2.1-4.7 5.6v16.9h-9V77.8h9v2.7a9.5 9.5 0 0 1 3.5-2.8c1.4-.6 2.9-.9 4.5-.8a9 9 0 0 1 7.8 3.9 10 10 0 0 1 8.6-4c7.1.2 11.6 5.1 11.6 12.6zM455.2 77.6a6.7 6.7 0 1 0 0-13.4 6.7 6.7 0 0 0 0 13.4z"/>
	</g>
</svg>
