<svg xmlns="http://www.w3.org/2000/svg" xml:space="preserve" viewBox="52 48 410 82">
	<g fill="#fff" class="logo">
		<path d="M113.6 84.4c-1.1 1.2-2 2.5-2.6 4.1a13 13 0 0 0-.6 4.8l-.1-.1a12 12 0 0 1-.8 5.6 15 15 0 0 1-3 4.8 13.4 13.4 0 0 1-10.4 3.8l.1.1c-2.3-.2-4.6.3-6.5 1.4-2 1.1-3.6 2.9-4.5 4.9s-1.3 4.4-.9 6.6a11.3 11.3 0 0 0 9 9 11.3 11.3 0 0 0 11.5-5.4c1.1-2 1.6-4.3 1.4-6.5l.1.1a12 12 0 0 1 .8-5.6 15 15 0 0 1 3-4.8 13.4 13.4 0 0 1 10.4-3.8l-.1-.1a10 10 0 0 0 5.4-.9c1.7-.7 3.2-1.9 4.3-3.4s1.9-3.2 2.2-5.1c.3-1.8.1-3.7-.5-5.5s-1.7-3.3-3.1-4.5c-1.4-1.2-3.1-2.1-4.9-2.5s-3.7-.3-5.5.2a9.9 9.9 0 0 0-4.7 2.8zM91.3 100.3c1.6.1 3.2-.1 4.7-.6s2.9-1.4 4.1-2.6c1.1-1.1 2-2.5 2.6-4.1.5-1.5.7-3.2.6-4.8l.1.1a12 12 0 0 1 .8-5.6 15 15 0 0 1 3-4.8 13.4 13.4 0 0 1 10.4-3.8l-.1-.1c2.3.2 4.6-.3 6.5-1.4 2-1.1 3.6-2.9 4.5-4.9a10.8 10.8 0 0 0-2.2-12.5 11.3 11.3 0 0 0-5.9-3.1 11.3 11.3 0 0 0-11.5 5.4c-1.1 2-1.6 4.3-1.4 6.5l-.1-.1a12 12 0 0 1-.8 5.6 15 15 0 0 1-3 4.8 13.4 13.4 0 0 1-10.4 3.8l.1.1a10 10 0 0 0-4.8.6c-1.5.5-2.9 1.4-4.1 2.6-1.1 1.1-2 2.5-2.6 4.1a13 13 0 0 0-.6 4.8l-.1-.1a12 12 0 0 1-.8 5.6 12.6 12.6 0 0 1-7.8 7.8c-1.8.7-3.7.9-5.6.8l.1.1c-2.3-.2-4.6.3-6.5 1.4-2 1.1-3.6 2.9-4.5 4.9a10.8 10.8 0 0 0 2.2 12.5c1.6 1.6 3.7 2.7 5.9 3.1a11.3 11.3 0 0 0 11.5-5.4c1.1-2 1.6-4.3 1.4-6.5l.1.1a12 12 0 0 1 .8-5.6 15 15 0 0 1 3-4.8c1.4-1.3 3-2.4 4.8-3 1.8-.8 3.7-1.1 5.6-.9z M71.1 94.2c1.1-1.2 2-2.5 2.6-4.1s.7-3.2.6-4.8l.1.1c-.2-1.9.1-3.8.8-5.6s1.7-3.4 3-4.8c1.4-1.4 3-2.4 4.8-3 1.8-.7 3.7-.9 5.6-.7l-.1-.1c2.3.2 4.6-.3 6.5-1.4 2-1.1 3.6-2.9 4.5-4.9a10.8 10.8 0 0 0-2.2-12.5 11.3 11.3 0 0 0-5.9-3.1 11.3 11.3 0 0 0-11.5 5.4c-1.1 2-1.6 4.3-1.4 6.5l-.1-.1c.2 1.9-.1 3.8-.8 5.6s-1.7 3.4-3 4.8a13.4 13.4 0 0 1-10.4 3.8l.1.1a10 10 0 0 0-5.4.9c-1.7.7-3.2 1.9-4.3 3.4s-1.9 3.2-2.2 5.1c-.3 1.8-.1 3.7.5 5.5s1.7 3.3 3.1 4.5c1.4 1.2 3.1 2.1 4.9 2.5 1.8.4 3.7.3 5.5-.2 1.7-.6 3.3-1.6 4.7-2.9z"/>
		<path d="M169.7 78.8c-2 0-3.6.8-4.8 2.5-1.1 1.7-1.7 4-1.7 6.9 0 6.1 2.3 9.2 7 9.2a14 14 0 0 0 4.1-.6l4-1.4v7.3a21.3 21.3 0 0 1-9 1.8c-4.8 0-8.5-1.4-11-4.2-2.6-2.8-3.8-6.8-3.8-12.1 0-3.3.6-6.2 1.9-8.7 1.2-2.5 3-4.4 5.3-5.7 2.3-1.3 5.1-2 8.2-2 3.4 0 6.7.7 9.8 2.2l-2.6 6.8c-1.2-.6-2.3-1-3.5-1.4-1.3-.4-2.5-.6-3.9-.6zM199.5 104V90.5c0-3.3-1-5-2.9-5-1.4 0-2.4.6-3.1 1.7a12 12 0 0 0-1 5.8v11H184V70.2h8.5V75l-.3 7.4h.4a6.7 6.7 0 0 1 2.9-2.7c1.1-.5 2.4-.8 3.9-.8 2.8 0 4.9.8 6.4 2.4a9.4 9.4 0 0 1 2.3 6.7v16h-8.6zM229.8 104l-1.6-3.3h-.2a9.2 9.2 0 0 1-3.5 2.9c-1.2.5-2.7.8-4.6.8-2.3 0-4.1-.7-5.5-2.1a8.3 8.3 0 0 1-2-5.9c0-2.6.9-4.6 2.7-5.9s4.5-2 7.9-2.2l4.1-.1V88c0-2-1-3-3-3-1.8 0-4.1.6-6.8 1.8l-2.5-5.6c2.9-1.5 6.5-2.2 10.9-2.2 3.2 0 5.6.8 7.3 2.3a8.7 8.7 0 0 1 2.6 6.6V104h-5.8zm-6.3-5.6c1 0 1.9-.3 2.6-1 .7-.7 1.1-1.5 1.1-2.5V93l-2 .1c-2.8.1-4.2 1.1-4.2 3.1.1 1.5.9 2.2 2.5 2.2zM257 104V90.5c0-1.6-.2-2.9-.7-3.7-.5-.8-1.2-1.2-2.3-1.2-1.4 0-2.5.6-3.1 1.7-.6 1.1-1 3.1-1 5.9V104h-8.5V79.4h6.4l1.1 3h.5c.7-1.2 1.7-2 3-2.6 1.3-.6 2.8-.9 4.4-.9 2.7 0 4.8.8 6.4 2.4a9.4 9.4 0 0 1 2.3 6.7v16H257zM294.5 79.4v4.1l-3.4 1.2c.5.8.7 1.8.7 2.9 0 2.6-.9 4.7-2.8 6.2s-4.6 2.2-8.3 2.2l-2.2-.2c-.2.4-.3.7-.3 1.1 0 .4.3.7 1 1 .7.2 1.6.3 2.7.3h4.1c5.5 0 8.3 2.3 8.3 7a8 8 0 0 1-3.8 7 19.4 19.4 0 0 1-10.8 2.5c-3.5 0-6.2-.6-8.1-1.7a5.5 5.5 0 0 1-2.8-5c0-2.9 1.8-4.8 5.5-5.7-.8-.3-1.4-.8-2-1.5a3.4 3.4 0 0 1-.2-4.1c.4-.6 1.3-1.3 2.6-2.1a6 6 0 0 1-3-2.7 8.7 8.7 0 0 1-1.1-4.4c0-2.7.9-4.8 2.7-6.2 1.8-1.5 4.4-2.2 7.8-2.2l2.3.2 2.4.3h8.7zM276 107c0 .7.4 1.3 1.1 1.7.8.4 1.8.6 3 .6 2.1 0 3.7-.3 4.9-.8 1.2-.5 1.9-1.2 1.9-2 0-.7-.4-1.1-1.1-1.4-.8-.3-1.8-.4-3.2-.4h-3.3c-.9 0-1.7.2-2.3.6s-1 1.1-1 1.7zm2.6-19.6c0 2.5.9 3.8 2.6 3.8.8 0 1.4-.3 1.9-.9s.7-1.6.7-2.8c0-2.5-.8-3.8-2.5-3.8-1.8-.1-2.7 1.2-2.7 3.7zM310.1 104.4c-4.1 0-7.3-1.1-9.5-3.3-2.3-2.2-3.4-5.3-3.4-9.3 0-4.2 1-7.3 3.1-9.6 2.1-2.2 5.1-3.3 9-3.3 3.7 0 6.6 1 8.6 2.9s3 4.7 3 8.4V94h-15.2c.1 1.4.6 2.5 1.5 3.2.9.8 2.2 1.2 3.9 1.2a17.3 17.3 0 0 0 8.2-1.8v6.1c-1.3.7-2.7 1.2-4.1 1.4s-3.1.3-5.1.3zm-.5-19.7c-1 0-1.8.3-2.5.9-.7.6-1.1 1.6-1.2 3h7.3c0-1.2-.4-2.1-1-2.8s-1.5-1.1-2.6-1.1zM345.8 104h-8.5V70.2h8.5V104zM375.2 91.6c0 4-1.1 7.2-3.2 9.4s-5.2 3.4-9.1 3.4c-3.7 0-6.7-1.2-8.9-3.5a12.9 12.9 0 0 1-3.3-9.3c0-4 1.1-7.1 3.2-9.4s5.2-3.3 9.1-3.3c2.4 0 4.6.5 6.4 1.5 1.9 1 3.3 2.5 4.3 4.4 1 2 1.5 4.2 1.5 6.8zm-16 0c0 2.1.3 3.7.8 4.8s1.5 1.7 2.8 1.7c1.3 0 2.2-.6 2.8-1.7s.8-2.7.8-4.8c0-2.1-.3-3.7-.8-4.8-.6-1.1-1.5-1.6-2.8-1.6-1.3 0-2.2.5-2.8 1.6s-.8 2.7-.8 4.8zM403.3 79.4v4.1l-3.4 1.2c.5.8.7 1.8.7 2.9 0 2.6-.9 4.7-2.8 6.2s-4.6 2.2-8.3 2.2l-2.2-.2c-.2.4-.3.7-.3 1.1 0 .4.3.7 1 1 .7.2 1.6.3 2.7.3h4.1c5.5 0 8.3 2.3 8.3 7a8 8 0 0 1-3.8 7 19.4 19.4 0 0 1-10.8 2.5c-3.5 0-6.2-.6-8.1-1.7a5.5 5.5 0 0 1-2.8-5c0-2.9 1.8-4.8 5.5-5.7-.8-.3-1.4-.8-2-1.5a3.4 3.4 0 0 1-.2-4.1c.4-.6 1.3-1.3 2.6-2.1a6 6 0 0 1-3-2.7 8.7 8.7 0 0 1-1.1-4.4c0-2.7.9-4.8 2.7-6.2 1.8-1.5 4.4-2.2 7.8-2.2l2.3.2 2.4.3h8.7zM384.7 107c0 .7.4 1.3 1.1 1.7.8.4 1.8.6 3 .6 2.1 0 3.7-.3 4.9-.8 1.2-.5 1.9-1.2 1.9-2 0-.7-.4-1.1-1.1-1.4-.8-.3-1.8-.4-3.2-.4H388c-.9 0-1.7.2-2.3.6s-1 1.1-1 1.7zm2.7-19.6c0 2.5.9 3.8 2.6 3.8.8 0 1.4-.3 1.9-.9s.7-1.6.7-2.8c0-2.5-.8-3.8-2.5-3.8-1.8-.1-2.7 1.2-2.7 3.7zM430.5 91.6c0 4-1.1 7.2-3.2 9.4s-5.2 3.4-9.1 3.4c-3.7 0-6.7-1.2-8.9-3.5a12.9 12.9 0 0 1-3.3-9.3c0-4 1.1-7.1 3.2-9.4s5.2-3.3 9.1-3.3c2.4 0 4.6.5 6.4 1.5 1.9 1 3.3 2.5 4.3 4.4 1 2 1.5 4.2 1.5 6.8zm-15.9 0c0 2.1.3 3.7.8 4.8s1.5 1.7 2.8 1.7c1.3 0 2.2-.6 2.8-1.7s.8-2.7.8-4.8c0-2.1-.3-3.7-.8-4.8-.6-1.1-1.5-1.6-2.8-1.6-1.3 0-2.2.5-2.8 1.6s-.8 2.7-.8 4.8z"/>
	</g>
</svg>
