<svg xmlns="http://www.w3.org/2000/svg" xml:space="preserve" width="18" height="16" viewBox="0 0 224.6 224.5">
	<path d="M224.6 119.3c-.2-3-1.2-5.9-2.9-8.6l-.5-.7-.1-.2a18.7 18.7 0 0 1-1.8-18c3.7-8.5.6-18.4-7.2-23.3a19 19 0 0 1-8.8-16.1c.2-9.1-6.4-17-15.6-18.7l-.2-.1-.1.2a18.6 18.6 0 0 1-13.9-11.4A18.8 18.8 0 0 0 151.9 11c-6.4 1.4-13-.5-17.6-5.2-.9-1-2-1.8-3-2.5v-.1c-4-2.6-8.8-3.6-13.5-2.8l-.5.1-.8.2-1 .3-.3.1c-1.8.6-3.6 1.4-5.2 2.6a18.8 18.8 0 0 1-18.1 1.9c-4-1.7-8.2-1.9-12.1-.9a18.7 18.7 0 0 0-11.3 8.1 18.8 18.8 0 0 1-16.1 8.7 18.7 18.7 0 0 0-18.7 15.6 18.8 18.8 0 0 1-11.5 14.2 18.8 18.8 0 0 0-11.4 21.6c1.4 6.4-.5 13-5.2 17.6a18.4 18.4 0 0 0-5.6 13v1c.1 3.6 1.2 7.2 3.4 10.4a18.8 18.8 0 0 1 1.9 18.2 18.7 18.7 0 0 0 7.2 23.3c5.4 3.4 8.7 9.2 8.8 15.6v.3l.1 1.5V174.1c.4 7.1 5.1 13.2 11.6 15.9v-.1c1.2.5 2.5.9 3.9 1.1a18.8 18.8 0 0 1 14.2 11.5 18.8 18.8 0 0 0 21.6 11.4c6.3-1.4 12.8.4 17.3 5v.1l.2.2a18.6 18.6 0 0 0 24.3 2.1 18.8 18.8 0 0 1 18-1.8 18.9 18.9 0 0 0 23.5-7.2c3.5-5.5 9.6-8.8 16.1-8.7 9.2.1 17.2-6.5 18.7-15.6a18.8 18.8 0 0 1 11.5-14.2 18.8 18.8 0 0 0 11.4-21.6c-1.4-6.4.5-13 5.2-17.6a20 20 0 0 0 5.7-15.3zm-112.3 69.9a77.1 77.1 0 1 1 .2-154.2 77.1 77.1 0 0 1-.2 154.2z"/>
	<path d="m158.6 99.9-32.5-4-13.9-28.9-14.1 29-32 4.7 23.6 22.4-5.6 31.8 28.2-16.1 28.8 15.5-5.8-31.7z"/>
</svg>
