<svg version="1.0" xmlns="http://www.w3.org/2000/svg" width="22" height="20" viewBox="0 0 2016 1878">
	<path fill="#8b9097" d="M1070.7 3.6c-25.7 4-43.8 11.3-68.7 27.6-26.3 17.2-48.8 25.4-77 27.9-24 2.1-45.1-1.3-73.2-11.7-17.8-6.6-25.1-8.7-37.3-10.8-39.5-6.7-80.8 2.1-113.3 24.2-18.4 12.5-29.4 23.7-46.5 47.8-25.8 36.2-58.9 58.9-97.8 67.2-12.7 2.7-16.2 3.1-39.4 4.2-29.2 1.4-44.8 5.1-67 15.9-26.8 13.1-49.5 33.9-65 59.6-9.8 16.2-15.4 31.4-20.4 55.2-5 23.5-11.4 39.8-22.7 57-17.6 27.2-38.8 44.8-72.2 60.2-18.9 8.7-26.2 12.8-36.5 20.4-31.9 23.6-54.2 60.3-61.3 100.7-2.9 16.2-2.5 39.5.9 57.5 3.9 20.5 5 35.5 3.7 50-2 21.7-6.9 39.3-15.7 57-8.2 16.2-16.2 27.1-32.3 44-5.3 5.5-11.8 12.8-14.4 16.3-15.4 20.2-26 46.4-29.6 72.9-1.8 12.9-.8 40 1.9 52.1 2.2 9.9 7.7 27.1 9.1 28.6 1 1 120-36.2 121.6-38 .6-.7 1.6-8.4 2.2-17.1 4.6-60.6 18.1-126 38.7-187.8C307.4 537.7 397.6 408.2 519 310.4c113.8-91.7 256.3-151.8 403.5-170.3 36.9-4.7 52.2-5.5 98.5-5.6 50.7 0 72.9 1.4 115.5 7.6 148.9 21.5 291.1 85.9 406 183.8 37.8 32.2 77.9 73.4 105.4 108.3 4.4 5.6 8.4 9.7 9.4 9.8 2.4 0 119-35.9 120.2-37.1.6-.6.2-3.9-1.2-9.3-7.8-30.4-25.9-58.7-50.2-79-21.5-17.9-42.9-27.8-74.6-34.5-20-4.3-26.2-6.4-42-14.1-29.3-14.5-52.3-36.4-68.3-65.1-1.7-3.1-5.6-11.4-8.7-18.3-6.5-14.8-12.3-24.9-20-34.9-9.1-12-8.8-11.7-13.9-11.7h-4.5l1.7-3.1 1.7-3-4-3.5c-9.1-7.9-18.5-14.4-20.7-14.4-1.5 0-3.3-1.1-4.6-3-4.5-6-33.7-17.6-54.2-21.6-7-1.3-14.1-1.8-27.5-1.8-15.8 0-19.7.4-32.5 2.9-13.3 2.7-16.3 2.9-36.5 3-19.4 0-23.2-.3-32.4-2.3-29.4-6.6-53.6-19.6-76.5-41.1-13.8-13.1-20.9-18.9-29.8-24.7-13.5-8.8-34.4-17.7-50.1-21.3-17.2-4-41.5-5.1-58-2.5zm-287 139.3c2.9 1.8 9.1 10.6 8.1 11.6-.2.3-3.6.7-7.5 1.1l-7 .7-2.7-3.5c-2.8-3.7-3.4-8.6-1.4-10.6 1.8-1.8 6.9-1.4 10.5.7z"/>
	<path fill="#8b9097" d="M999 183.1c-130.7 3.7-259.2 41.9-372 110.7-117.7 71.8-217.1 179.6-278.4 302.1l-6.7 13.2 2.2 3.5c2.5 4.1 1.9 5.1-3.1 5.6-4 .3-4.8 1.7-14.7 25.3-26.3 62.1-44 125.8-53.3 191-2.4 17.4-4.8 39.4-4.3 39.9.4.4 39.5-11.8 41.2-12.8 1.2-.8 1.1-.6 4.6-25.6 9.1-65.1 28.3-130.6 56.9-193.5 75.9-167 214-298.8 384.1-366.8 68.9-27.5 134.9-43 212.5-49.9 22.3-2 90.9-1.7 113.5.5 43.2 4.2 73.9 9.4 111.5 18.7 74.8 18.6 143.3 47.8 210.4 89.7 11.1 6.9 15.2 9 16.2 8.3.9-.8 1.7-.3 3.1 2 1 1.7 7.2 7 13.8 11.8 14.7 10.5 31.3 23.3 42.2 32.5 5.2 4.3 8.9 6.7 9.8 6.3.9-.3 1.5 0 1.5.9 0 1.7 4 6.3 5.8 6.7.8.2 2.1-1.5 3.1-4 .9-2.4 2.1-4.4 2.6-4.4 1.2 0 4.5 6.2 4.5 8.4 0 1-.9 2.7-2 3.8l-2 2 10.2 9.7c13.2 12.4 32.6 32.3 43 44l8.2 9.3 4-.6c5.6-.8 14.1-3.3 17.4-5 1.5-.8 3.5-1.4 4.4-1.4 2.3 0 17.8-4.9 17.8-5.7 0-1.9-27.1-31.5-47.9-52.4-24.3-24.2-38.6-37.3-59.1-54-59.6-48.4-129.6-89.2-202-117.6-78.9-31-166.6-49.5-245.5-51.8-9.3-.3-19.7-.7-23-.8-3.3-.2-17 0-30.5.4z"/>
	<path fill="#8b9097" d="M989.3 295.9c-7.2.3-13.5.9-13.9 1.3-.4.4-4.2 31.9-8.5 70-4.2 38.1-8 71.2-8.3 73.6l-.6 4.3 14.8-.3 14.7-.3.8-10c.4-5.5 1.1-13.4 1.5-17.5l.7-7.5h18l2.3 16.5c1.3 9.1 2.6 16.8 3 17.2.8.8 28.1-.8 29-1.7.3-.3-5.2-33-12.1-72.8-7-39.7-12.7-72.5-12.7-73 0-.7-6.6-.7-28.7.2zm12.2 55.6c1.9 14.8 3.8 28 4 29.2.5 2.2.3 2.3-6 2.3-5.5 0-6.5-.3-6.5-1.8 0-.9.6-10 1.4-20.2.8-10.2 1.8-23.2 2.2-29 .4-5.8.9-9.8 1.1-9 .1.8 1.8 13.6 3.8 28.5zm83.1-51.6c-.8 1.3-22.1 144-21.5 144.5 1 .9 59.5 9.3 60.2 8.6 1-.9 5.7-18.6 5.7-21.6 0-2.3-.5-2.5-23.9-5.5-5.1-.7-9.5-1.8-9.7-2.4-.3-.6 3.6-27.6 8.5-60 4.9-32.5 8.6-59.3 8.3-59.7-.4-.4-5.2-1.4-10.7-2.2-5.5-.9-11.4-1.8-13.2-2.1-1.7-.3-3.4-.1-3.7.4zm-187.5 7.6c-6.8 1.3-12.5 2.6-12.7 2.8-.4.4 25.7 143.8 26.3 144.6.5.7 26.3-4.2 26.9-5 .8-1.4-25.9-144.9-27.1-144.8-.5 0-6.6 1.1-13.4 2.4zm-86.2 20c-12.3 3.1-22.7 9.9-27.4 17.9-3 5.1-4.3 14-3.3 21.8.8 6.7 25.4 76.9 30.8 88.3 8.7 18.1 20.6 24.2 38.3 19.6 21.8-5.7 31.9-17.5 30.4-35.7-.6-6.7-4.9-22.9-6.7-24.7-.7-.8-24.7 5.8-26.3 7.3-.4.3.7 5 2.4 10.2 3.5 10.7 3.4 13.8-.7 16.5-3.2 2-6.8 1-9.6-2.8-2-2.7-28.1-75.6-30-83.9-.9-4.1-.9-5.3.6-7.4 1.3-2.1 2.5-2.6 5.5-2.6 5.1 0 7.8 3.2 11.1 12.8 1.4 4 2.9 7.2 3.5 7.2 2.3 0 25.5-8.2 25.5-9.1 0-.4-1.4-4.3-3-8.5-3.4-8.4-8.2-16.4-12.6-20.8-6.4-6.4-17.8-8.8-28.5-6.1zm-108.5 49.9c-12.8 4.1-25.6 14.9-28.8 24.2-2.3 6.8-2 16.6.7 24.4 2.2 6.1 34.3 62.5 42.8 75.1 4.8 7.1 13.1 14.6 18.9 17.1 8.8 3.8 21.3 2 32.5-4.7 20.6-12.4 25.4-29 14.5-50.5-3.6-7.2-37-63.7-41-69.5-4-5.8-10.8-12-16-14.7-5.4-2.8-17.2-3.5-23.6-1.4zm13.4 29.4c3.6 4.6 40.8 69.9 42.9 75.1 1.3 3.3 1.3 4.3.1 6.7-.7 1.6-2.5 3.5-4 4.2-3.6 1.7-8.5-.3-12.3-5.1-2.8-3.5-36.8-60.5-41.1-68.9-3-5.8-3-9.7-.3-13.2 4.3-5.5 9.8-5 14.7 1.2zm-112 39.1c-7.2 2.9-11.1 5.6-17.5 12.4-10.6 11.5-12 22.1-4.6 36.6 4.9 9.8 16.6 22 24.4 25.6 8.1 3.7 14.2 4.5 33.8 4.5 22.3 0 25.6 1.3 34.5 13.3 4.1 5.5 4.6 9.7 1.6 12.7-4.2 4.2-9.1 2.4-17-6.2l-5.6-6.1-9.9 8.7c-5.5 4.8-10.1 9.3-10.3 10-.4 1.9 15.7 16.8 21.3 19.6 11.7 5.8 26.5 1.9 38.9-10.4 7-6.9 10.5-13.5 11.3-21.1 1.1-10.5-5.4-24.1-17.3-36.1-12.4-12.6-22.7-15.7-49.9-15.2-14 .3-15.3.1-19.7-2-5.7-2.8-12.8-11.2-12.8-15.2 0-1.5 1-3.6 2.5-5 2.2-2.1 2.7-2.2 5.5-1 1.7.7 5.2 3.7 7.8 6.7 2.5 2.9 5 5.3 5.4 5.3 2 0 19.6-16.5 19-17.7-1.5-2.6-12.8-13.6-16.6-16.2-8-5.5-16.3-6.5-24.8-3.2zm1231.7-.2c-7.2.9-19.8 3.7-29.5 6.5-18.2 5.2-99.5 30.9-100.2 31.6-.9.9.1 5.2 1.3 5.2.4 0 1.1-.5 1.4-1 .9-1.4 2.5-1.2 2.5.3 0 .8-.9 1.8-1.9 2.3-1.8.8 1.9 13.2 60.2 200.1 47.1 150.9 62.6 199.3 63.7 199.3 1.8 0 100-30.5 111-34.5 25.3-9.2 47-25.8 56.9-43.6 14.3-25.8 15.6-56.4 4.1-100.4-3.9-14.9-49.5-162.4-56.5-182.5-7-20.3-18.9-42.2-29.9-55.4-5.1-6.1-17.3-15.9-23.7-19.1-14.1-7.2-24.6-9.5-42.4-9.3-7.7 0-15.3.3-17 .5zm10.3 72.5c8.6 4.1 15.1 14.6 22 35.8 7.5 22.7 57.2 183 59.7 192.3 7 25.9 3 40.1-13.5 47.8-6.3 3-22.7 8.5-23.4 7.8-.2-.2-20-62.5-43.9-138.4s-43.8-138.7-44.2-139.6c-.5-1.3 1.4-2.1 11.2-4.7 6.5-1.7 13.2-3.3 14.8-3.5 5-.7 12.7.4 17.3 2.5zm-226.9-7.9c-5.1 1.6-7.2 3.8-12.5 12.8-2.5 4.4-4.9 8.1-5.4 8.4-.4.3-2.7-2.5-5.1-6.1l-4.3-6.6-5.9 6.6c-3.2 3.6-6.3 6.4-6.8 6-.5-.3-.9-2.1-.9-4 0-2-.5-3.4-1.2-3.4-2.7-.1-118.8 36.4-118.8 37.3 0 .5 11.7 38.5 26.1 84.5 15.7 50.5 26.7 84.2 27.7 85 1 .8 1.6 2.4 1.4 4.5-.1 1.9 5.5 21.6 14.2 49.2 13.7 44 14.5 46 16.9 46.3 3.4.4 4.4 3.2 1.7 5.2-2 1.5-1.8 2.1 18.2 66.3l20.2 64.8 3-.6c1.7-.3 29.2-8.8 61.1-18.9 48.6-15.3 58.2-18.6 59-20.4.7-1.6 1.5-2 3-1.5 3.4 1.1 6.1.5 24.2-5.3 16.2-5.2 17.4-5.7 17-7.7-.3-1.2-2.9-17.1-5.8-35.2-2.9-18.2-5.5-33.3-5.9-33.8-.4-.4-9 1.9-19.2 5.1-15.8 4.9-19 6.2-21.6 9-3.1 3.3-7.1 4.2-10.2 2.2-1-.6-2.4-.3-4.6 1.1-1.7 1-4.2 1.8-5.5 1.7-1.3-.1-10.2 2.3-19.6 5.2-9.5 3-17.4 5.2-17.6 4.9-1.4-1.5-33.7-109.3-33-109.9.4-.4 18.8-6.3 40.8-13 22-6.8 40.3-12.6 40.7-12.9.7-.6-12.8-43.9-14.1-45.4-.4-.4-5.1.8-10.5 2.8-5.3 1.9-10.1 3.5-10.6 3.5-2.8 0-.1-4.4 7.6-12.1 8.4-8.4 8.6-8.8 8-12.3-.4-1.9-1-3.7-1.4-4-.4-.2-18.8 5.1-40.7 12-22 6.8-40.6 12.5-41.4 12.6-1.4.3-4.5-8.5-11.7-33-.8-2.9-1.9-5-2.4-4.7-.4.3-1.3-2.6-2-6.5-.6-3.9-3.8-15.3-7-25.5l-5.7-18.5 12.1-3.8c6.7-2.2 26.4-8.3 43.9-13.7 23.9-7.4 31.7-10.3 31.7-11.4 0-.9-4.7-16.5-10.4-34.6-6.8-21.7-10.8-33.1-11.7-33.2-.8 0-3 .4-5 1zm-61.2 56.9c7.9 3.6 9.2 4.6 9.7 7.1 1.5 7.2-4.3 10.8-10.9 6.7-6-3.7-12-13.8-10-17 .9-1.5 1.2-1.4 11.2 3.2zm-61.2 43.3c.9 14.2 0 23-2.6 25.6-1.5 1.5-2.4 1.7-3.8 1-2.1-1.2-2.7-4.9-3.7-21l-.7-11 3.1-3c1.7-1.7 3.9-3.1 5-3.1 1.8 0 2 1 2.7 11.5zm-466.9-78.3c-.3 1.3-1.4 8.1-2.5 15.2s-2.2 13-2.3 13.1c-.2.1-6.5 3-14 6.5-7.6 3.4-13.8 6.6-13.8 7 0 .3 6.3 3.7 13.9 7.4l13.9 6.7.5 4.2c.4 2.3 1.1 9.3 1.8 15.4.6 6.2 1.4 11.3 1.8 11.3.3 0 5.3-4.7 11.1-10.5 6.4-6.4 11.2-10.5 12.5-10.5 1.1 0 7.8 1.1 15 2.5 7.1 1.4 13.3 2.5 13.7 2.5.5 0-2.4-6.3-6.2-14.1l-7.1-14.1 7-13c3.9-7.1 7.1-13.4 7.1-14 0-.5-.8-.7-1.7-.4-1 .2-7.8 1.4-15 2.6l-13.3 2.1-6.8-7.3c-3.8-4-8.4-9-10.2-11.1-3.7-4.3-4.8-4.6-5.4-1.5zm-137 27.5c-1.5 10.9-3 21-3.3 22.4-.4 2.3-2.7 3.6-20.4 11.5-10.9 4.8-19.9 9.2-19.9 9.6 0 .4 8.7 5.1 19.3 10.4 10.5 5.3 19.3 9.7 19.5 9.9.1.1 1.3 9.1 2.7 20.1 3.6 28.1 2.5 26.1 9.8 18.4 3.3-3.6 10.4-10.9 15.6-16.3l9.4-9.8 21.6 4.5c11.9 2.5 21.7 4.3 21.9 4.1.2-.1-4.2-8.9-9.7-19.5-5.6-10.6-10.1-19.8-10.1-20.4 0-.6 4.7-9.4 10.3-19.6 5.9-10.5 9.8-18.6 9.2-18.8-.7-.2-10.6 1.3-22 3.2l-20.9 3.5-3-3.5c-13.4-15.1-26.2-29.3-26.6-29.3-.3-.1-1.8 8.8-3.4 19.6zM776 623.1l-2.5 15-13.8 6.3c-7.6 3.5-14.1 6.6-14.4 7-.3.3 5.9 3.7 13.9 7.5l14.4 6.9 1.3 12.8c2 21.3.5 20.4 13.5 7.5l11.1-11.1 15 2.9c8.3 1.6 15.2 2.7 15.4 2.5.3-.2-2.5-6.2-6.2-13.3-3.7-7-6.7-13.3-6.7-13.9 0-.7 3.2-7.1 7-14.3 3.9-7.3 6.9-13.4 6.6-13.6-.2-.2-7.1.9-15.3 2.4l-14.9 2.9-10.4-11.3c-5.7-6.2-10.6-11.3-10.9-11.3-.3 0-1.7 6.8-3.1 15.1zm525-9.4c-9.4 1-18.5 2.6-29 5.3-11.5 2.9-106.9 32.6-107.8 33.5-.7.6 124.9 403.2 126.4 405.2.9 1.3 8.1-.7 50-13.7 61.2-19.1 66.5-20.9 79.6-27.7 32.2-16.7 48.2-40.7 51.3-76.8 1.4-16.2-2.7-43.3-10.5-69.8-10-34-53.3-171.5-57-180.8-13-32.8-29.8-54.7-50.2-65.4-7.2-3.8-8.8-3.8-8.8-.1 0 1.2-.6 3.1-1.4 4.2-1.4 1.8-1.5 1.8-2.1.2-.4-1-.5-3.6-.3-5.8l.4-4.1-5.2-1.5c-9.3-2.7-24.5-3.8-35.4-2.7zm11 47.2 6 12-4.3.5c-2.3.3-7.9.8-12.4 1.1l-8.1.5 1.8-8.5c1.1-4.6 2.4-9.5 3-10.7 1.2-2.4 5.9-6.8 7.2-6.8.5 0 3.5 5.4 6.8 11.9zm-2.8 26.1c10.1 3.1 16.6 9.5 22.9 22.5 2.7 5.7 4.9 11.4 4.9 12.9 0 2.5-1.9 5.1-5.4 7.1-1.5.9 1.1 9.9 26.4 91 15.5 49.5 29 93.8 30.2 98.5 2.8 11.9 2.8 24.1-.1 30.1-4.1 8.6-10.3 12.8-27.9 18.9-5.1 1.8-9.5 3-9.8 2.7-.3-.3-15.7-48.6-34.3-107.4-31.4-99.5-33.8-106.8-35.8-106.5-2.9.4-3.9-1.5-1.9-3.7.9-1 1.6-2.3 1.6-3 0-.7-4.1-14.1-9-29.9-6.2-19.5-8.7-28.8-7.9-29.3.9-.5 13.8-4 23.4-6.3 3.9-.9 16.2.4 22.7 2.4zm-99.5 27.1c7.6 1.1 8.1 1.4 7.2 3.1-2.2 4.1-6.9 5.8-15.8 5.8-6.7 0-8.2-.3-7.8-1.4.3-.8 1.1-3.3 1.8-5.6 1.1-3.7 1.5-4.1 3.8-3.7 1.4.3 6.3 1.1 10.8 1.8zm-175.2-21.9c-19.2 6-35.1 11.1-35.2 11.2-.2.2 1.3 5.3 3.2 11.4l3.5 11.1 2.4-2.4c1.3-1.3 4.3-2.9 6.7-3.5 2.4-.6 8-2.1 12.4-3.2 4.3-1.2 13-4.7 19.2-7.9l11.2-5.7 2.1 5.4c1.1 3 2 5.9 2 6.4 0 2.2-4.1 5-7.2 5-4.7 0-9.2 3.2-11.4 7.9-1.1 2.2-2.3 4.1-2.7 4.1-.4 0-1.7-2.3-2.9-5-1.1-2.8-2.4-5-2.8-5-.4 0-5.2 1.8-10.6 4.1-5.5 2.3-11.3 4.7-13.1 5.4l-3.2 1.3 3.5 11.4c13.6 44.2 48.5 144.4 66.2 190.3 6 15.6 6.8 18.1 5.3 18.6-.9.4-2.9 2.1-4.5 3.8-1.7 1.7-3.7 3.1-4.6 3.1-.9 0-3.4-1.8-5.5-4l-3.9-4h8.7c4.8 0 8.7-.3 8.7-.7 0-3.3-127.9-224.3-132.9-229.5-1.5-1.6-4.1-.9-41.1 10.5-36.9 11.4-39.5 12.4-39.5 14.5-.1 3.6-2.6 4.6-4.8 1.9l-1.9-2.2.6 3c.5 3.1 90.3 291.2 91.1 292.6.3.4 3 1.7 6 3 5.4 2.2 5.5 2.4 4.9 5.3-.7 3.3-2.1 5.6-4.1 6.9-.7.4-1.3 1.3-1.3 1.9 0 1.8 28.2 92.1 29.2 93.4.5.8 11.3-2.1 35.1-9.3 18.8-5.8 34.6-10.9 35.1-11.4 2.5-2.3-57.9-185.8-80.4-244.3-5.7-15.1-6.6-18.8-3.6-15.5.7.8 25.6 45 55.3 98.4 66.9 120 79.8 142.8 81.5 143.8.8.5 18.2-4.5 44.2-12.7 23.5-7.4 43-13.6 43.2-13.9.2-.2-9-30.4-20.5-67.2l-20.8-66.8-5.6-2.8c-6.6-3.4-9.7-7-9.7-11.5 0-4.2.9-4.7 5.9-2.9 2.3.8 4.1 1.1 4.1.7 0-.4-18-58.1-39.9-128.2-27.3-87.5-40.2-127.6-41.2-127.7-.8-.1-17.1 4.8-36.4 10.9zM673.6 805c-31.4 9.9-57.4 18.4-57.8 18.8-.7.7 67.6 424 68.6 424.9.5.5 78-23.8 79.1-24.8.6-.6-2.5-18.2-8.8-50.1-5.4-27-9.5-49.4-9-49.8.4-.4 11.7-4.4 25.1-8.8l24.3-8.1 3.8 8.2c2 4.5 11.3 25.4 20.7 46.4 10.7 24.3 17.4 38.2 18.3 38.3 1.5 0 79.3-23.9 80-24.5.5-.5 8.3 15.9-96.4-202.3-48.9-102.1-89.4-185.7-90-185.8-.5-.2-26.6 7.8-57.9 17.6zm49.3 134.5c14.7 34.1 30.6 70.8 35.2 81.6l8.6 19.7-18.4 5.7c-10.2 3.1-18.6 5.5-18.7 5.3-.2-.1-4-19-8.5-41.8-9.5-47.6-20.6-100.7-25-119.3-1.7-7.1-3.1-13.1-3.1-13.3 0-.3.7-.4 1.6-.2 1.1.2 10.3 20.4 28.3 62.3zm-306.9-52c-12.8 2.1-20.3 4.2-74.5 21.1-27.5 8.5-50.8 15.7-51.7 16-1 .3-1.8 1.1-1.8 1.8 0 1.6 82.6 266.6 83.3 267.3.3.2 1.9-.3 3.6-1.2 3.5-1.8 3.7-1.5 2.5 5.8-.6 3-.9 3.5-2.1 2.6-.7-.7-1.5-1-1.8-.8-.2.3 7.7 26.3 17.6 57.9 9.9 31.6 19.1 61.2 20.5 65.7 1.4 4.7 3.1 8.3 3.8 8.3 1.9 0 76-23 76.9-23.9.6-.6-50.4-166.8-53.8-175.2-.5-1.3 1.2-2.1 9-4.3 18.4-5.3 25.8-4.4 33.1 3.6 6.6 7.3 9.3 14.4 28.9 75 5.2 16.4 9.8 29.8 10.2 29.8.4 0 1.4-.7 2.4-1.6 1-.9 2.6-1.4 3.5-1 2 .8 1.2 6.8-1.5 10.6-2 2.8-2 2.8 3.2 13.9 1.7 3.6 3 7.2 2.9 8-.1 3.4 9.9 26.1 11.6 26.1 1.5 0 73.7-22.3 74.6-23.1.5-.5-.8-5.1-3.1-11.1-3.8-9.5-14.1-40.8-34.3-103.7-12.2-38.1-19.6-53-32.1-65.2-6.7-6.6-17.5-12.3-26.4-14.1-3.3-.6-6.2-1.2-6.3-1.4-.2-.1 2.1-3.2 5.1-6.7 17-20 19.9-46.3 9.6-84.6-11-40.5-19.7-58.2-36.8-75.1-7.1-7.1-10.3-9.4-18.1-13.2-5.2-2.6-12.2-5.4-15.5-6.3-8.4-2.3-31.6-2.8-42.5-1zm11.7 71.1c8.3 4.8 13.2 14.8 21.8 44.4 4.8 16.2 5.8 21.2 6.2 29.7.5 9.6.4 10.6-2.1 15.7-3.9 7.9-10.4 12.3-26.4 17.7-6 2-8.4 2.5-8.7 1.6-1.5-4.2-31.5-103.5-31.5-104.4 0-.9 17.1-6.6 23-7.7 5.1-.9 13.5.5 17.7 3zm27.2 315.9c0 3.3-1 6.3-6.2 17.8l-3.5 7.8-3.5-4.3c-11-13.5-10.4-18.6 3-25.6l7.8-4.1 1.2 2.7c.7 1.5 1.2 4 1.2 5.7zm1423.7-339.9c-27.5 8.4-50.3 15.7-50.8 16.2-.4.4-1.2 10.5-1.8 22.4-3 65.4-13.3 129.2-30.1 185.8-2.4 8-4.3 16.4-4.3 18.7 0 2.6-.5 4.3-1.2 4.3-.6 0-3.7 7.5-6.9 16.7-62.6 183.3-189.6 338.2-357 435.5-17.6 10.3-42.1 23.2-58.5 30.8-7.4 3.5-14.1 6.8-14.8 7.5-1.7 1.5-.1 8.7 2.7 12.6 1.2 1.6 2.1 3 2.1 3.3 0 .2-3.5.2-7.7-.1-6.9-.5-8.5-.2-13.5 2-4.6 2-5.9 3.1-6.4 5.4-2 9-2.3 9.4-7.5 8l-4.1-1 .6-4.1c.8-5 3.8-7.8 8-7.4 2.5.2 3.7-.5 6.8-3.8 6.8-7.4 4.4-9.3-5.7-4.9-9.9 4.4-34.3 13.5-53.4 19.9-10.2 3.4-18.6 6.7-18.8 7.3-.2.6 2.9 4.6 6.9 9 6 6.6 7.9 9.6 11 17.1l3.6 9-4.1-1.4c-5.3-1.9-6.6-3.1-10.2-9.8-1.6-3.1-3.3-5.6-3.7-5.6-.4 0-1 1-1.3 2.1-.4 1.2-2.6 4.2-4.9 6.7l-4.1 4.5-.6-6.4c-1-11-3.3-22.9-4.5-22.9-.6 0-2.6.5-4.5 1.1-1.9.6-4 1.3-4.8 1.5-1 .3-1 .8-.2 1.8.6.7 1.8 3.5 2.6 6.2l1.5 4.9-4.2 3.8c-2.3 2.1-5 4.3-6 4.8-2.4 1.3-2.4-1 .3-11.3 1.1-4.4 1.8-8.2 1.6-8.5-.3-.2-3.8.4-7.8 1.5-7 1.7-7.6 2.1-10.7 6.8l-3.4 4.9.7-4.4c.6-3.9.5-4.2-1.1-3.8-9.5 2.8-37.9 8.6-60.4 12.2-116.3 18.7-235.6 11.4-349.1-21.4-160.5-46.4-303.8-142.2-407.5-272.6-6.5-8.3-15.3-19.7-19.3-25.3-4.1-5.6-8-10.1-8.5-9.9-.6.2-23.7 7.3-51.3 15.8l-50.3 15.4v7.6l2.7-2.1 2.7-2.1 1.8 7.8c2.5 11.3 2.6 11.2-2.4 10.6l-4.1-.6.6 5.4c.7 7.3 4.2 16.3 8 20.6 1.7 1.9 7.1 6.5 12.1 10.2 5 3.7 10 7.8 11 8.9l1.9 2.2h-4.2c-5.7 0-10.2-2.1-15.9-7.4-2.7-2.5-5.2-4.6-5.5-4.6-.9 0 4.9 13.6 9.9 22.9 15.8 29.7 44.2 55.9 74.7 68.8 7.3 3.1 22.2 8.3 23.8 8.3.4 0 .7-1.2.7-2.7 0-3 3.3-6.3 6.4-6.3 3.2 0 6.8 4.5 6.8 8.4 0 3.3.1 3.5 5.3 4.5 30.9 6.6 62.4 25.1 83.5 49.1 10.9 12.4 19.4 25.9 28.1 44.8 8.8 19 12.8 26.2 20.6 36.8 5.5 7.3 19.1 22.4 20.4 22.4.3 0 1.7-1.8 3.1-4 1.4-2.2 2.9-4 3.4-4 1.8 0 7.6 5.1 7.6 6.7 0 .9-1.1 3.1-2.5 4.9-1.4 1.8-2.5 3.5-2.5 3.8 0 .2 4.1 3.2 9.1 6.6 10.7 7.1 23.7 13.5 36.5 18l9.1 3.1 3.1-3c1.7-1.7 3.6-3.1 4.4-3.1.7 0 2.9 2 4.8 4.5 1.9 2.4 4.1 4.7 4.9 5 .8.3 5.9 1 11.5 1.6 12.8 1.4 29 .4 45.9-2.7 20-3.7 35.4-4.7 49.3-3.4 21.3 2 39.3 6.9 56.6 15.6 17 8.5 26.1 15.1 43.8 31.9 6.7 6.3 12.8 11.5 13.5 11.5.7 0 1.5.6 1.8 1.4 1.6 4.2 31.8 20.6 46.7 25.5 22.9 7.4 46.5 9.7 69 6.7 25.7-3.5 46.3-11.3 69.3-26.5 20.7-13.7 35-20.3 54.2-25.1 21.9-5.5 45-6.2 66.9-2 11.5 2.3 15.3 3.4 33.1 10.1 24.3 9.1 38.7 11.9 61.5 12.1 18.2.1 32.6-2.1 49.5-7.7 19.1-6.2 39.8-18.1 54-30.8l5.9-5.4-2.2-2.8c-1.2-1.5-2.2-3.7-2.2-4.8 0-1.9.4-1.7 3.5 1.3 3.4 3.3 3.5 3.3 5.5 1.5 1.2-1.1 4.6-4.9 7.6-8.6 4.3-5.3 5.4-7.2 4.9-9.1-.3-1.3-.1-4.5.5-7.1.9-4 .8-5.3-.6-7.7-.9-1.5-1.5-3.4-1.2-4.2.6-1.4 8.6-4.4 9.4-3.5.3.3-.7 3-2.3 6.1-2.6 5.4-2.6 5.7-.9 7.4 2 1.9.6 3.2 11.1-10.3 3.2-4.2 9.7-11.2 14.3-15.6 4.6-4.3 8.1-8.3 7.8-8.8-.4-.5-4.3-2.2-8.9-3.7-13.7-4.5-18.4-7.2-24-13.6-5.3-6-6.8-6.7-19.4-9.8-2.4-.6-4.3-1.7-4.3-2.4 0-3.4 3.3-17.2 4.3-18.2.7-.6 5.6-2.4 11-3.9 7.7-2.3 10-2.6 10.6-1.6.5.7 1.4 5.2 2 9.9 1.9 14 2.4 15 9.3 18.2l6.1 2.9 5.4-4c5.1-3.8 5.7-4 8.4-2.9 5.5 2.3 12.9 12.6 12.9 18.1 0 2.5.1 2.4 5.9-1.1 7.7-4.7 24.8-12.5 33.7-15.3 9.9-3.1 28-6.7 33.8-6.7 3.2 0 4.6-.5 5-1.7.5-1.2.9-1.4 1.8-.5 1.7 1.7 21.2 1.5 33.3-.3 16.6-2.5 34.8-8.2 48.3-15.3 4.4-2.4 4.8-3.4 3.1-7.8-1.5-4.2-.4-6.7 4.3-9.2 4.8-2.6 5.8-1.9 5.8 4 0 2 .4 3.9.9 4.2 1.3.8 15.9-10.4 24.4-18.8 23.9-23.4 37.4-49.3 45.2-86.6 6.9-33 19.6-57.7 41.3-80.2 16.4-17 31-27 54.7-37.4 23.9-10.6 39.6-21.4 55.6-38.2 13.5-14.2 23.6-29.7 30.9-47.7 8.3-20.1 11.1-33.6 11.7-56.5.5-16.6.4-18.4-2.8-36.5-3.1-17.3-3.4-20.7-3.3-37.5.1-10.2.6-20.7 1.2-23.5.9-4.3.8-5.3-.9-7.6-2.2-3.1-2.3-4.8-.7-8.6 1.6-3.8 1.6-3.7 3.3-2.3.9.7 1.7 1.1 1.9.9.1-.2 1.7-4.7 3.5-9.9 4.3-12.3 12.6-28.4 20.1-38.7l5.9-8.3-2.9-1.5c-1.7-.9-3-2.1-3-2.9 0-1.4 5.2-4 11.7-5.6 3.1-.8 5.8-2.7 10.9-8 44.3-45.8 55.2-118.5 26.2-176.4-5.3-10.6-12.9-22.6-14.2-22.5-.6 0-23.6 7-51 15.5zm-1561 509.5c3.4.6 6.9 1.8 7.7 2.7 1.6 1.8 4.1 12.1 3.2 13-.5.5-14.4 5.1-14.6 4.8-.4-.5-3.4-21.6-3-21.6.2 0 3.3.5 6.7 1.1zm1167.6 213.6c3.7 3.4 5 12.8 1.8 13.8-4.2 1.3-13-6.7-13-11.9 0-4.4 7-5.7 11.2-1.9zm-133.7 45.8c.4 5.7.4 11.6.1 13.1-.9 3.4-5.6 7.8-9.7 9.3l-3.2 1.1.7-7.3c.6-7.2.6-7.4-1.9-8.5-3.1-1.4-3.1-2.5.3-8.7 2-3.7 3.9-5.6 7.2-7.3 2.4-1.2 4.7-2.2 5.1-2.2.4 0 1 4.7 1.4 10.5zm-40.1 13c3.3 5 5.5 12.6 6.7 22.7 1.1 9.5 1.1 10.7-.6 14.2-1.7 3.5-2 3.7-3.2 2.1-.7-1-1.6-3.3-1.9-5.2-.3-1.8-.9-3.5-1.3-3.8-.4-.2-2 1.6-3.6 4-1.5 2.5-3 4.5-3.3 4.5-.2 0-1.3-1.1-2.4-2.5-1.1-1.4-2.4-2.5-2.9-2.5s-2 2.2-3.3 4.8c-3.5 6.8-5.1 8-8.4 6.1-6.8-3.8-6.4-13 .8-17.1 2.2-1.3 4-2.9 4-3.6 0-.7-1.4-4-3.1-7.3-1.7-3.4-2.8-6.3-2.5-6.6.3-.3 2.7-.8 5.3-1 5.8-.7 6.9-1.4 7.7-5.4.4-2.1 1.5-3.4 3.8-4.4 4.7-2 6.4-1.8 8.2 1zm47.6 12c.8 1.5 4.2 5.1 7.6 8.1 6.9 6 9.8 10.2 10.8 15.3.6 3.3.5 3.3-2.4 2.7-1.7-.3-5.6-1.6-8.7-2.8-5.1-2-6.4-3.2-11-9.7-6-8.3-6.5-11-2.7-14 3.5-2.7 4.8-2.6 6.4.4zM815.5 1739c1.8 1.5 1.9 6.4.4 10.8-1 2.9-1.2 3-3.2 1.7-1.2-.8-5.1-1.9-8.7-2.4-7.5-1.2-10.3-3.6-9.8-8.5.3-3.1.4-3.1 6.8-3.6 7.2-.6 12.3.2 14.5 2zm523.2.1c5.8 2.5 10 6.2 11.9 10.8 2.4 5.8 2 6.3-3.7 4.2-6.3-2.5-9.4-4.5-11.4-7.5-1.6-2.4-3.2-9.6-2.2-9.6.3 0 2.7.9 5.4 2.1zm-171.2 51.4c1.4 1.3 2.5 3.5 2.5 4.9 0 2-3.5 13.1-4.5 14.4-.1.1-4.8-1.3-10.3-3.3-11.5-4-13.9-4.2-22.8-1.8-8.6 2.3-9.8 1.5-10.2-6.3-.1-3.2.1-6.4.5-7.1.9-1.3 17.4-3 32.1-3.2 9.7-.1 10.4 0 12.7 2.4z"/>
	<path fill="#8b9097" d="M1768.2 969.1c-5 1.6-6.2 2.3-5.8 3.7.4 1.3-1.1 2.8-6.5 6-3.8 2.3-7.4 4.2-7.8 4.2-.5 0-1.2-1.6-1.5-3.5-.6-3.2-.9-3.5-3.4-2.9-7.6 1.9-7.3 1.2-8.7 17.6-.6 6.8-.1 7.9 2.4 5.5 1.1-1 1.2-.8.8.8-4.1 14.4-5.8 21.9-7.1 31.9-.9 6.6-1.4 12.2-1.1 12.4.2.2 2.4-1.2 4.8-3.2l4.4-3.6.6 9.2c.3 5.1.3 9.5.2 9.6-.2.2-2.9-.5-6-1.7-4.2-1.6-5.7-1.8-5.9-.8-.3.6-1.6 7.7-3.1 15.7-7.2 39.9-20.3 86.2-35.1 124.3-3 7.7-5.4 14.2-5.4 14.6 0 .4 1.5.5 3.3.3 4.1-.5 6.7 1.8 6.7 5.6 0 3.4-.9 4.8-3.8 5.7-1.9.5-2.9 0-5.5-2.8l-3.1-3.5-5.8 13.1c-24 54-58.8 111.9-92 153.2l-4.8 5.9 4.4 1.7c2.5.9 5.8 2.6 7.4 3.8 3 2.1 7.2 7.9 7.2 9.9 0 .6-3 1.4-6.7 1.8-10.9 1.1-11.2 1.5-4.4 5.4l6 3.5-2.1 2.2c-3.3 3.5-8.1 4.6-16.7 3.9-11.3-.9-11.8.2-2.8 6.3 8.1 5.4 10.2 8 9.2 11.1-.7 2.2-5.9 6.4-12.8 10.4l-4.9 2.8-9-4.1c-5-2.3-9.1-4-9.3-3.9-.1.2-2.1 5.8-4.6 12.6-4.2 11.7-4.5 12.2-6.9 11.8-12.5-2.4-14.5-3-16.7-5.2l-2.5-2.5-4.3 3.8c-2.4 2.1-9.6 8.5-16.2 14.3-36.8 32.8-78.3 62.1-124.5 87.9-8.2 4.6-14.8 8.7-14.8 9.1 0 1.3 5.3 4.8 8.3 5.5 3 .8 3.1.4-3.6 8.5l-2.8 3.3-3.2-3.9c-1.8-2.1-4.3-5.1-5.7-6.7l-2.5-2.8-15.5 7.4c-18.5 8.8-32.9 15-54.5 23.3-10.2 3.9-15.9 6.6-15.7 7.4.2.8-.4 1.1-1.8.7-2.3-.6-16 3.1-16 4.3 0 .4.7 2.7 1.5 5 2 5.7 1.9 6-1.3 6-3 0-6.2-2.6-6.2-5 0-.7.7-2.2 1.7-3.2 2.2-2.5 1.5-2.4-13.8 2.1-45.4 13.4-89.4 21.8-139.6 26.7-22.1 2.1-80.7 3-104.1 1.5-120.8-7.8-232.2-43.3-335.1-106.9-65.9-40.7-128.1-95.4-178.7-157.4-5.8-7-10.9-12.8-11.3-12.8-1.2 0-40.2 11.8-40.8 12.3-.9 1 28.2 37.1 44.2 54.7 3.7 4.1 15.3 16.2 25.9 26.9 99.5 101 226.2 172 366.6 205.5 83.1 19.8 173.9 25.1 259.5 15 21.7-2.5 51.8-7.5 55.2-9.1 1.8-.8 3.9-1.3 4.6-1 1.3.5 10.7-1.1 11.6-1.9.2-.2-.8-1.5-2.2-3-2.5-2.5-2.6-2.8-1.2-6.1 1.5-3.5 5.3-9.3 6.1-9.3.3 0 1.2 1.6 2 3.5 1.6 3.9 1.9 11.1.4 12-.5.3-1 1-1 1.5 0 1.6 7.3-.9 10.1-3.6 2.5-2.3 2.9-2.5 2.9-1 0 2.4 2.6 2 22.5-3.5 19.4-5.3 27.8-8.1 28.2-9.6.2-.6-.9-2.6-2.5-4.5-2.2-2.5-3.1-4.7-3.6-9.1-.5-4.6-.4-5.7.6-5.1 6.5 3.9 17.2 12.1 17.6 13.6.2 1 .7 1.8 1.1 1.8 2.1.1 28.1-9.6 28.1-10.4 0-.6 1-3.1 2.2-5.6l2.1-4.5 1.2 4c.8 2.5 1.8 3.9 2.6 3.7 2.6-.6 43.5-18.4 53.9-23.5 9.4-4.6 10.8-5.7 12.9-9.6 2.2-4.1 2.5-4.3 3.2-2.3.5 1.2 1.3 2.2 1.9 2.2 3.9 0 46.2-24.7 72.5-42.3 130.3-87.4 231.2-215.1 286.8-362.7 8.1-21.7 22.7-66.9 22.7-70.6 0-.7-1-1.4-2.1-1.6-1.2-.2-2.6-1.3-3-2.6-.8-2-.6-2.2 3-2.2h3.8l2.7-10.3c5.8-22.5 11.4-51.8 15-79.7 1.3-9.6 2.3-18.6 2.4-20 .1-1.4.7-9.3 1.5-17.5.8-8.3 1.7-19.2 2-24.3.7-10.6 1.1-10.3-9.1-7.1zm3.2 29.3c.7 1.8 1.7 4.7 2 6.3.6 2.8.4 3.2-2.5 4.2-4.6 1.6-8.8 1.3-13.4-.8-8.7-4.1-8.7-4.3 1.6-8.9 5.2-2.3 9.7-4.2 10.1-4.2.4 0 1.4 1.5 2.2 3.4zm-53.4 161.3c0 3.9-2.6 14.1-3.8 15-.9.7-3.3 1.3-5.3 1.3h-3.8l.6-5.3c.7-6.8 2.4-9.3 7-10.5 4.9-1.3 5.3-1.3 5.3-.5zm7.8 25.1c5.7 5.6 6.2 7.4 2.9 11.3-2.9 3.3-13.2 11.9-14.3 11.9-.4 0-2.8-1.9-5.1-4.2-4.9-4.9-5.6-8.4-2.2-13.3 1.1-1.7 3.3-5.6 5-8.8l3-5.8 2.7 2c1.5 1 5.1 4.2 8 6.9zm-292 351.3c5.6 1 6.7 1.7 10.3 5.8l4.1 4.6-4.3.3c-6.4.5-8.6-.4-14.5-6-5.5-5.2-6.7-7.3-3.6-6.4.9.3 4.5 1 8 1.7zm-103.3 71.4c5.6 5.8 5.8 12.9.7 17.9l-2.8 2.6-10.9-3.6c-6.1-2-11.4-4-11.8-4.4-.8-.8 14.8-13.9 18.1-15.2 2.8-1.1 3.3-.9 6.7 2.7zm-48 23.9c.4 1.7.5 5.4.3 8.1-.3 4.8-.4 5-3.6 5.3-2 .2-3.4-.2-3.6-1-.3-.7-.7-6.5-.9-12.8l-.5-11.5 3.9 4.3c2.1 2.4 4.1 5.8 4.4 7.6zM135 977.1c-9.3.9-19.6 2.9-30.5 6.1C87.7 988 4.4 1014.3 3.6 1015c-.7.7 117.3 383.8 119.5 388 .5.8 1.5 4.2 2.3 7.5 2.2 9.3 3.4 11.8 5.2 11.1.8-.3 20.3-6.5 43.2-13.6 54.4-17.1 63.2-20 63.2-21 0-.5-.5-2.1-1-3.6-.8-2.1-.8-2.9.2-3.6 2.6-1.6 4.6-.8 5.3 2.2.4 1.6 1 3.2 1.3 3.4.4.2 5.8-2 11.9-4.9 48-22.8 64-59.5 50.3-114.8-4.4-17.9-16.8-56.4-21-65.5-11.5-24.5-27.3-38.6-49.4-44.2-4.4-1.1-9.2-2-10.9-2-2.9 0-2.9 0 3.3-6.7 7.5-8 12.4-17.7 14.5-28.7 3.4-17.9.9-34.7-10.4-69.7-12.2-37.5-27.2-56.7-52.1-66.7-11.4-4.6-28.7-6.6-44-5.1zm4.8 70.8c4.4 2.2 9.8 8.4 13 14.6 4.6 9.3 13.4 37.6 15.2 49.3 2.3 14.4-1.6 23-13.5 29.3-6.6 3.6-24.3 9.5-25.3 8.5-.2-.3-7.3-22.3-15.7-49l-15.2-48.5 3.1-1c3.5-1.2 17.8-4.8 21.6-5.5 4.7-.9 12.7.2 16.8 2.3zm50.9 159.4c3.1 1.7 9 7.7 11.6 11.9 3.4 5.5 8.7 20 15.7 42.8 3.9 12.9 7.6 24.8 8.1 26.5.6 1.6 1.3 6.9 1.6 11.7.5 6.9.2 9.7-1.1 13.2-3.2 8.5-12.5 14.5-30.9 20.1-4.9 1.5-9 2.5-9.1 2.3-.8-1-38.8-123.9-38.5-124.3 1.1-1 19-5.7 24.4-6.3 6.9-.9 14.1 0 18.2 2.1z"/>
	<path fill="#8b9097" d="M1241.9 1167.6c-6.3 6.4-11.1 10.4-12.4 10.4-1.1 0-8-1.1-15.4-2.5s-13.6-2.3-13.8-2.1c-.3.2 2.8 6.7 6.9 14.3l7.3 13.8-7.7 13.4c-4.3 7.4-7.6 13.6-7.5 13.8.2.1 7.3-.9 15.8-2.2l15.4-2.5 2.6 2.8c1.4 1.5 5.9 6.3 10.1 10.7 4.1 4.4 7.9 8.1 8.4 8.3.5.1 1.8-6.6 2.9-14.9l2-15.2 14.3-6.5c7.8-3.5 14.2-6.8 14.2-7.1 0-.4-6.2-3.7-13.8-7.5l-13.9-6.9-1.8-14.9c-1-8.2-2.1-15.1-2.5-15.3-.3-.2-5.3 4.3-11.1 10.1zm-120.9 34.9-15.5 15.5-18.4-3.5c-10-1.9-18.7-3.5-19.2-3.5-.4 0-1.2 1.6-1.8 3.5-.9 3.4-.4 4.6 7 18.9 4.3 8.4 7.9 15.9 7.9 16.6 0 .7-4.5 9.4-10 19.3-8.8 15.8-10.7 19.7-9.7 19.7.1 0 9.7-1.8 21.2-4 11.6-2.2 21.2-4 21.5-4 .3 0 7.2 7.2 15.4 16 8.1 8.8 15.1 16 15.5 16 .4 0 2.1-9.6 3.9-21.2 1.8-11.7 3.6-21.5 4-21.9.4-.3 9.3-4.6 19.9-9.5 10.6-4.9 19.2-9.3 19.3-9.7 0-.5-8.9-5.1-19.7-10.4-10.9-5.2-19.9-9.5-19.9-9.6-.1-.1-1.1-9.2-2.4-20.2-1.2-11-2.4-20.8-2.8-21.8-.6-1.4-3.7 1.3-16.2 13.8zm-121.3 36c-1.1 2.2-2.1 3.3-3.1 2.9-.9-.3-4.3 2.5-9.3 7.6l-7.8 8.1-14.8-3.1c-8.2-1.8-15.1-2.9-15.4-2.6-.3.3 2.7 6.6 6.6 14.1l7.2 13.6-7.5 13.2c-4.2 7.3-7.1 13.4-6.5 13.6.6.2 7.6-.7 15.7-1.9l14.5-2.3 3 3.4c8.4 9.5 17.8 19.1 18.3 18.6.5-.4 4.3-26.2 4.4-29.3 0-.7 1.7-1.9 3.8-2.7 2-.8 8.7-3.9 14.7-6.7l11-5.2-14-7c-7.7-3.9-14.1-7.1-14.2-7.2-.1-.1-1.1-6.8-2.2-15-1.1-8.1-2.1-15-2.3-15.2-.3-.2-1.2 1.2-2.1 3.1zm375.3 36.4c-9.3 3-20.8 13.1-25.2 21.8-1.8 3.8-2.3 6.4-2.3 12.8 0 7.2.4 8.6 3.5 14.5 4.8 8.9 17.6 21.8 25.5 25.6l6 2.9h25c16 0 25.9.5 27.5 1.2 4.2 1.8 13 9.2 15.1 12.6 2.4 4.1 2.4 6.8-.2 10.1-1.4 1.8-3 2.6-5.3 2.6-3.8 0-6.4-1.6-13.4-8.4l-5.2-5.1-10.1 10.1-10.1 10.1 4.7 4.4c7.8 7.2 15.3 12.4 20.6 14.3 11.5 4.2 24.9-.3 35.7-11.9 8.6-9.1 10.7-14 10.7-24.5 0-7.7-.4-9.1-3.4-15-2.3-4.4-6.3-9.4-12.6-15.7-15.6-15.6-23.2-17.8-53.6-15.3-14.4 1.2-16.2 1.2-20.2-.4-6.1-2.3-13.7-10.4-13.7-14.6 0-2.9 2.9-7 5-7 1.6 0 6 3 11.4 7.7 2.6 2.4 5.2 4.3 5.6 4.3 1 0 18-18.1 18-19.1 0-1.6-13.5-13.1-18.3-15.6-5.5-2.8-15.9-4-20.7-2.4zm-80.7 67.4c-13.3 9.5-24.1 17.6-23.9 18.2.5 1.4 81.5 116.6 83.5 118.7 1.5 1.6 3.1.6 24.1-14.3 12.4-8.8 23.4-16.7 24.5-17.5 2-1.4 1.9-1.7-3.4-11.7-3-5.6-5.7-10.6-6.2-11.1-.4-.5-6.7 3.3-14.1 8.6-7.3 5.2-13.8 9.7-14.4 10.1-1.1.6-23.4-29.2-23.4-31.2 0-.8 10.3-8.4 23.3-17.2 1-.7-12.2-20.9-13.7-20.9-.4 0-6 3.6-12.3 8-6.4 4.5-11.9 8-12.4 7.8-.5-.2-4.7-5.9-9.4-12.7-5.6-8.2-8.2-12.8-7.6-13.5.5-.6 6.1-4.7 12.5-9.1 6.3-4.4 11.5-8.4 11.6-8.8 0-.9-13.3-20.6-14-20.6-.3 0-11.4 7.7-24.7 17.2zm-70 41.2c-12.4 3.4-23.1 10.9-28.1 19.4-2.4 4.2-2.7 5.5-2.7 14.6 0 7.1.5 11.6 1.8 15.5 2.5 7.4 32 73 36.2 80.5 3.8 6.9 10.2 13.6 15.4 16.2 12.6 6.3 34.7-3.7 38.3-17.2l1.2-4.4 2.4 3.9c1.3 2.2 2.5 4 2.6 4 .2 0 4.7-2 9.9-4.4l9.6-4.5-7.5-16.3c-4.2-9-12.1-26.1-17.6-38.1-5.5-11.9-10.1-21.7-10.2-21.7-.1 0-7.6 3.4-16.6 7.5-9.1 4.1-16.9 7.6-17.5 7.8-1.1.4 8.3 21.7 9.6 21.7.5 0 2.4-.8 4.4-1.7 2.2-1 3.9-1.3 4.4-.7 1.4 1.5 9.9 21.8 11.3 26.8 1.1 4 1 5.1-.3 7.4-3.3 5.9-10 5.2-14.5-1.5-4.1-6.1-34.7-76.4-35.2-80.8-.4-3.7-.1-4.7 2.1-6.9 5.4-5.4 10.8-2.5 16.2 8.4 1.5 3 2.8 5.6 3 5.8.2.2 24.6-10.7 25.4-11.4.8-.7-6.9-15.2-10.6-19.9-7.7-9.7-20.4-13.6-33-10zm-98.3 35.2c-10.7 2.4-19.8 4.7-20.1 5.1-.7.8 11.4 146.9 12.3 147.7.4.5 26.8-5.3 27.7-6.1.3-.3-2.6-27.6-3.5-32.5-.5-2.5-.2-2.6 6.8-3.9 4-.7 7.8-1.5 8.4-1.7.7-.2 3.4 6.2 6.9 16.1 3.4 9.8 6.3 16.6 7 16.6.7 0 6.2-1.1 12.2-2.5 5.9-1.4 11.8-2.7 13.1-3 1.2-.3 2.2-1 2.2-1.6 0-1.3-52-137.2-52.9-138-.3-.3-9.4 1.4-20.1 3.8zm16.3 54.8c5.3 15.3 9.5 28.1 9.3 28.3-.9.8-11.9 3.3-12.4 2.7-.3-.3-1.6-9.6-2.8-20.8-1.3-11.1-2.9-24.6-3.7-30-.8-5.4-1.1-9.4-.7-9 .4.4 5.1 13.4 10.3 28.8zm-226.8-53.3c-1.4 4-28.1 143.4-27.6 144 .7.8 26.4 5.8 26.9 5.3.7-.7 28.5-144.5 28-145-.3-.3-5.4-1.4-11.4-2.5s-11.9-2.3-13.2-2.5c-1.3-.3-2.4 0-2.7.7zm52.1 10.9c-.2.8-.7 19.8-1 42.4-.3 22.5-.9 55.3-1.3 72.7l-.6 31.8h26l.6-20.3c.4-11.1.8-38.4.8-60.7l.1-40.5 2.4 24.5c2.9 30.1 8.4 92.5 8.4 95.1 0 1.8.9 1.9 12.4 1.9h12.3l1.6-10.3c1.7-10.9 6.8-48.5 11.6-86.2l3-23-.4 18c-.3 9.9-.8 37.2-1.1 60.7l-.7 42.6 13.4.4c7.4.2 13.7.1 14-.2 1-.8 3-146.3 2.1-147.2-.5-.5-9.8-.7-20.7-.6l-19.8.3-5.8 35c-3.2 19.2-6.1 38.1-6.5 41.8-.4 3.7-.9 6.6-1.1 6.4-.2-.3-.8-6-1.4-12.8-1.5-19.3-7.1-70.3-7.8-71.1-.3-.4-9.5-1-20.3-1.4-16.5-.6-19.8-.5-20.2.7z"/>
</svg>
